<?xml version="1.0" encoding="UTF-8"?>
<svg xmlns="http://www.w3.org/2000/svg" xmlns:xlink="http://www.w3.org/1999/xlink" width="254.058pt" height="151.751pt" viewBox="0 0 254.058 151.751">
<defs>
<g>
<g id="glyph-0-0">
<path d="M 4 -3.171875 C 3.640625 -3.09375 3.625 -2.78125 3.625 -2.75 C 3.625 -2.578125 3.765625 -2.453125 3.9375 -2.453125 C 4.109375 -2.453125 4.375 -2.59375 4.375 -2.9375 C 4.375 -3.390625 3.875 -3.515625 3.578125 -3.515625 C 3.21875 -3.515625 2.90625 -3.25 2.71875 -2.9375 C 2.546875 -3.359375 2.140625 -3.515625 1.8125 -3.515625 C 0.9375 -3.515625 0.453125 -2.515625 0.453125 -2.296875 C 0.453125 -2.21875 0.515625 -2.1875 0.578125 -2.1875 C 0.671875 -2.1875 0.6875 -2.234375 0.703125 -2.328125 C 0.890625 -2.90625 1.375 -3.296875 1.78125 -3.296875 C 2.09375 -3.296875 2.25 -3.0625 2.25 -2.78125 C 2.25 -2.625 2.15625 -2.25 2.09375 -2 C 2.03125 -1.765625 1.859375 -1.0625 1.8125 -0.90625 C 1.703125 -0.484375 1.421875 -0.140625 1.0625 -0.140625 C 1.03125 -0.140625 0.828125 -0.140625 0.65625 -0.25 C 1.015625 -0.34375 1.015625 -0.671875 1.015625 -0.6875 C 1.015625 -0.875 0.875 -0.984375 0.703125 -0.984375 C 0.484375 -0.984375 0.25 -0.796875 0.25 -0.5 C 0.25 -0.125 0.640625 0.078125 1.046875 0.078125 C 1.46875 0.078125 1.765625 -0.234375 1.90625 -0.5 C 2.09375 -0.109375 2.453125 0.078125 2.84375 0.078125 C 3.703125 0.078125 4.1875 -0.921875 4.1875 -1.140625 C 4.1875 -1.21875 4.125 -1.25 4.0625 -1.25 C 3.96875 -1.25 3.953125 -1.1875 3.921875 -1.109375 C 3.765625 -0.578125 3.3125 -0.140625 2.859375 -0.140625 C 2.59375 -0.140625 2.40625 -0.3125 2.40625 -0.65625 C 2.40625 -0.8125 2.453125 -1 2.5625 -1.4375 C 2.609375 -1.6875 2.78125 -2.375 2.828125 -2.53125 C 2.9375 -2.953125 3.21875 -3.296875 3.578125 -3.296875 C 3.625 -3.296875 3.828125 -3.296875 4 -3.171875 Z M 4 -3.171875 "/>
</g>
<g id="glyph-0-1">
<path d="M 3.046875 -3.171875 L 3.796875 -3.171875 C 3.953125 -3.171875 4.046875 -3.171875 4.046875 -3.328125 C 4.046875 -3.4375 3.9375 -3.4375 3.8125 -3.4375 L 3.09375 -3.4375 C 3.234375 -4.15625 3.3125 -4.609375 3.390625 -4.96875 C 3.421875 -5.09375 3.4375 -5.1875 3.5625 -5.28125 C 3.671875 -5.375 3.734375 -5.390625 3.8125 -5.390625 C 3.9375 -5.390625 4.0625 -5.359375 4.171875 -5.296875 C 4.125 -5.28125 4.078125 -5.265625 4.046875 -5.234375 C 3.90625 -5.15625 3.8125 -5.015625 3.8125 -4.859375 C 3.8125 -4.671875 3.953125 -4.5625 4.125 -4.5625 C 4.359375 -4.5625 4.578125 -4.765625 4.578125 -5.046875 C 4.578125 -5.421875 4.1875 -5.609375 3.8125 -5.609375 C 3.53125 -5.609375 3.03125 -5.484375 2.78125 -4.75 C 2.703125 -4.5625 2.703125 -4.546875 2.5 -3.4375 L 1.890625 -3.4375 C 1.734375 -3.4375 1.640625 -3.4375 1.640625 -3.28125 C 1.640625 -3.171875 1.75 -3.171875 1.875 -3.171875 L 2.453125 -3.171875 L 1.875 -0.078125 C 1.71875 0.71875 1.609375 1.40625 1.171875 1.40625 C 1.15625 1.40625 0.984375 1.40625 0.84375 1.3125 C 1.203125 1.21875 1.203125 0.890625 1.203125 0.875 C 1.203125 0.6875 1.0625 0.578125 0.890625 0.578125 C 0.671875 0.578125 0.4375 0.765625 0.4375 1.0625 C 0.4375 1.40625 0.78125 1.625 1.171875 1.625 C 1.671875 1.625 2 1.109375 2.109375 0.921875 C 2.390625 0.390625 2.578125 -0.609375 2.59375 -0.6875 Z M 3.046875 -3.171875 "/>
</g>
<g id="glyph-0-2">
<path d="M 2.515625 -2.484375 L 3.953125 -2.484375 C 5.109375 -2.484375 6.296875 -3.28125 6.296875 -4.21875 C 6.296875 -4.90625 5.671875 -5.4375 4.640625 -5.4375 L 1.953125 -5.4375 C 1.8125 -5.4375 1.703125 -5.4375 1.703125 -5.296875 C 1.703125 -5.171875 1.8125 -5.171875 1.9375 -5.171875 C 2.203125 -5.171875 2.4375 -5.171875 2.4375 -5.046875 C 2.4375 -5.015625 2.421875 -5.015625 2.40625 -4.90625 L 1.328125 -0.625 C 1.265625 -0.328125 1.25 -0.265625 0.671875 -0.265625 C 0.5 -0.265625 0.40625 -0.265625 0.40625 -0.109375 C 0.40625 -0.078125 0.4375 0 0.53125 0 C 0.6875 0 0.875 -0.015625 1.03125 -0.03125 L 1.53125 -0.03125 C 2.296875 -0.03125 2.515625 0 2.5625 0 C 2.609375 0 2.71875 0 2.71875 -0.15625 C 2.71875 -0.265625 2.625 -0.265625 2.484375 -0.265625 C 2.46875 -0.265625 2.3125 -0.265625 2.1875 -0.28125 C 2.015625 -0.296875 2 -0.3125 2 -0.390625 C 2 -0.4375 2.015625 -0.484375 2.03125 -0.515625 Z M 3.09375 -4.890625 C 3.15625 -5.15625 3.171875 -5.171875 3.5 -5.171875 L 4.375 -5.171875 C 5.03125 -5.171875 5.53125 -4.984375 5.53125 -4.40625 C 5.53125 -4.296875 5.484375 -3.578125 5.046875 -3.140625 C 4.921875 -3.03125 4.546875 -2.71875 3.765625 -2.71875 L 2.546875 -2.71875 Z M 3.09375 -4.890625 "/>
</g>
<g id="glyph-0-3">
<path d="M 1.484375 -0.125 C 1.484375 0.390625 1.375 0.859375 0.890625 1.34375 C 0.859375 1.375 0.84375 1.390625 0.84375 1.421875 C 0.84375 1.484375 0.90625 1.53125 0.953125 1.53125 C 1.046875 1.53125 1.71875 0.90625 1.71875 -0.03125 C 1.71875 -0.53125 1.515625 -0.890625 1.171875 -0.890625 C 0.890625 -0.890625 0.734375 -0.65625 0.734375 -0.453125 C 0.734375 -0.21875 0.890625 0 1.171875 0 C 1.375 0 1.484375 -0.109375 1.484375 -0.125 Z M 1.484375 -0.125 "/>
</g>
<g id="glyph-0-4">
<path d="M 3.734375 -0.0625 C 4.984375 -0.5 6.21875 -1.859375 6.21875 -3.421875 C 6.21875 -4.734375 5.3125 -5.609375 4.046875 -5.609375 C 2.1875 -5.609375 0.40625 -3.765625 0.40625 -1.984375 C 0.40625 -0.765625 1.265625 0.171875 2.609375 0.171875 C 2.828125 0.171875 3.09375 0.140625 3.40625 0.0625 C 3.40625 0.15625 3.390625 0.453125 3.390625 0.515625 C 3.390625 0.84375 3.390625 1.546875 4.125 1.546875 C 5.0625 1.546875 5.5 0.140625 5.5 0 C 5.5 -0.0625 5.453125 -0.109375 5.390625 -0.109375 C 5.3125 -0.109375 5.296875 -0.03125 5.28125 -0.015625 C 5.109375 0.515625 4.65625 0.734375 4.3125 0.734375 C 4.046875 0.734375 3.84375 0.640625 3.734375 -0.0625 Z M 2.09375 -0.1875 C 1.46875 -0.4375 1.15625 -1 1.15625 -1.78125 C 1.15625 -2.3125 1.34375 -3.359375 1.984375 -4.234375 C 2.5 -4.921875 3.28125 -5.359375 3.96875 -5.359375 C 4.8125 -5.359375 5.484375 -4.765625 5.484375 -3.65625 C 5.484375 -3.234375 5.328125 -1.28125 3.6875 -0.34375 C 3.59375 -0.8125 3.4375 -1.203125 2.921875 -1.203125 C 2.46875 -1.203125 2.0625 -0.796875 2.0625 -0.390625 C 2.0625 -0.3125 2.078125 -0.25 2.09375 -0.1875 Z M 3.421875 -0.234375 C 3.25 -0.15625 2.96875 -0.078125 2.65625 -0.078125 C 2.5625 -0.078125 2.28125 -0.078125 2.28125 -0.390625 C 2.28125 -0.671875 2.578125 -0.984375 2.921875 -0.984375 C 3.28125 -0.984375 3.40625 -0.765625 3.421875 -0.234375 Z M 3.421875 -0.234375 "/>
</g>
<g id="glyph-0-5">
<path d="M 1.59375 -1.3125 C 1.625 -1.421875 1.703125 -1.734375 1.71875 -1.84375 C 1.75 -1.921875 1.796875 -2.125 1.8125 -2.203125 C 1.828125 -2.234375 2.09375 -2.75 2.4375 -3.015625 C 2.703125 -3.234375 2.96875 -3.296875 3.203125 -3.296875 C 3.484375 -3.296875 3.65625 -3.109375 3.65625 -2.75 C 3.65625 -2.5625 3.609375 -2.375 3.515625 -2.015625 C 3.453125 -1.8125 3.328125 -1.28125 3.28125 -1.0625 L 3.15625 -0.578125 C 3.109375 -0.453125 3.0625 -0.203125 3.0625 -0.171875 C 3.0625 0.015625 3.21875 0.078125 3.3125 0.078125 C 3.453125 0.078125 3.578125 -0.015625 3.640625 -0.109375 C 3.65625 -0.15625 3.71875 -0.4375 3.765625 -0.59375 L 3.9375 -1.3125 C 3.96875 -1.421875 4.046875 -1.734375 4.078125 -1.84375 C 4.1875 -2.28125 4.1875 -2.28125 4.359375 -2.546875 C 4.625 -2.9375 5 -3.296875 5.53125 -3.296875 C 5.828125 -3.296875 6 -3.125 6 -2.75 C 6 -2.3125 5.65625 -1.390625 5.5 -1.015625 C 5.421875 -0.8125 5.40625 -0.75 5.40625 -0.59375 C 5.40625 -0.140625 5.78125 0.078125 6.125 0.078125 C 6.90625 0.078125 7.234375 -1.03125 7.234375 -1.140625 C 7.234375 -1.21875 7.15625 -1.25 7.109375 -1.25 C 7.015625 -1.25 7 -1.1875 6.96875 -1.109375 C 6.78125 -0.453125 6.453125 -0.140625 6.140625 -0.140625 C 6.015625 -0.140625 5.953125 -0.21875 5.953125 -0.40625 C 5.953125 -0.59375 6.015625 -0.765625 6.09375 -0.96875 C 6.21875 -1.265625 6.5625 -2.1875 6.5625 -2.625 C 6.5625 -3.234375 6.15625 -3.515625 5.578125 -3.515625 C 5.03125 -3.515625 4.578125 -3.234375 4.21875 -2.734375 C 4.15625 -3.375 3.640625 -3.515625 3.234375 -3.515625 C 2.859375 -3.515625 2.375 -3.390625 1.9375 -2.8125 C 1.875 -3.296875 1.5 -3.515625 1.125 -3.515625 C 0.84375 -3.515625 0.640625 -3.34375 0.515625 -3.078125 C 0.3125 -2.703125 0.234375 -2.3125 0.234375 -2.296875 C 0.234375 -2.21875 0.296875 -2.1875 0.359375 -2.1875 C 0.46875 -2.1875 0.46875 -2.21875 0.53125 -2.4375 C 0.625 -2.828125 0.765625 -3.296875 1.09375 -3.296875 C 1.3125 -3.296875 1.359375 -3.09375 1.359375 -2.921875 C 1.359375 -2.765625 1.3125 -2.625 1.25 -2.359375 C 1.234375 -2.296875 1.109375 -1.828125 1.078125 -1.71875 L 0.78125 -0.515625 C 0.75 -0.390625 0.703125 -0.203125 0.703125 -0.171875 C 0.703125 0.015625 0.859375 0.078125 0.96875 0.078125 C 1.109375 0.078125 1.234375 -0.015625 1.28125 -0.109375 C 1.3125 -0.15625 1.375 -0.4375 1.40625 -0.59375 Z M 1.59375 -1.3125 "/>
</g>
<g id="glyph-1-0">
<path d="M 2.65625 1.984375 C 2.71875 1.984375 2.8125 1.984375 2.8125 1.890625 C 2.8125 1.859375 2.8125 1.859375 2.703125 1.75 C 1.609375 0.71875 1.34375 -0.75 1.34375 -1.984375 C 1.34375 -4.28125 2.28125 -5.359375 2.6875 -5.734375 C 2.8125 -5.828125 2.8125 -5.84375 2.8125 -5.875 C 2.8125 -5.921875 2.78125 -5.96875 2.703125 -5.96875 C 2.578125 -5.96875 2.171875 -5.5625 2.109375 -5.5 C 1.046875 -4.375 0.828125 -2.953125 0.828125 -1.984375 C 0.828125 -0.203125 1.5625 1.234375 2.65625 1.984375 Z M 2.65625 1.984375 "/>
</g>
<g id="glyph-1-1">
<path d="M 2.46875 -1.984375 C 2.46875 -2.75 2.328125 -3.65625 1.84375 -4.59375 C 1.453125 -5.328125 0.71875 -5.96875 0.578125 -5.96875 C 0.5 -5.96875 0.484375 -5.921875 0.484375 -5.875 C 0.484375 -5.84375 0.484375 -5.828125 0.578125 -5.734375 C 1.6875 -4.671875 1.9375 -3.21875 1.9375 -1.984375 C 1.9375 0.296875 1 1.375 0.59375 1.75 C 0.484375 1.84375 0.484375 1.859375 0.484375 1.890625 C 0.484375 1.9375 0.5 1.984375 0.578125 1.984375 C 0.703125 1.984375 1.109375 1.578125 1.171875 1.515625 C 2.234375 0.390625 2.46875 -1.03125 2.46875 -1.984375 Z M 2.46875 -1.984375 "/>
</g>
<g id="glyph-1-2">
<path d="M 5.828125 -2.65625 C 5.9375 -2.65625 6.109375 -2.65625 6.109375 -2.84375 C 6.109375 -3.015625 5.90625 -3.015625 5.796875 -3.015625 L 0.78125 -3.015625 C 0.65625 -3.015625 0.46875 -3.015625 0.46875 -2.84375 C 0.46875 -2.65625 0.625 -2.65625 0.75 -2.65625 Z M 5.796875 -0.96875 C 5.90625 -0.96875 6.109375 -0.96875 6.109375 -1.140625 C 6.109375 -1.328125 5.9375 -1.328125 5.828125 -1.328125 L 0.75 -1.328125 C 0.625 -1.328125 0.46875 -1.328125 0.46875 -1.140625 C 0.46875 -0.96875 0.65625 -0.96875 0.78125 -0.96875 Z M 5.796875 -0.96875 "/>
</g>
<g id="glyph-1-3">
<path d="M 3.46875 -1.8125 L 5.8125 -1.8125 C 5.921875 -1.8125 6.109375 -1.8125 6.109375 -1.984375 C 6.109375 -2.171875 5.921875 -2.171875 5.8125 -2.171875 L 3.46875 -2.171875 L 3.46875 -4.53125 C 3.46875 -4.640625 3.46875 -4.8125 3.296875 -4.8125 C 3.109375 -4.8125 3.109375 -4.640625 3.109375 -4.53125 L 3.109375 -2.171875 L 0.75 -2.171875 C 0.640625 -2.171875 0.46875 -2.171875 0.46875 -1.984375 C 0.46875 -1.8125 0.640625 -1.8125 0.75 -1.8125 L 3.109375 -1.8125 L 3.109375 0.546875 C 3.109375 0.65625 3.109375 0.828125 3.296875 0.828125 C 3.46875 0.828125 3.46875 0.65625 3.46875 0.546875 Z M 3.46875 -1.8125 "/>
</g>
<g id="glyph-1-4">
<path d="M 3.765625 -5.53125 C 3.671875 -5.6875 3.578125 -5.6875 3.515625 -5.6875 C 3.46875 -5.6875 3.375 -5.6875 3.28125 -5.53125 L 0.46875 -0.203125 C 0.40625 -0.109375 0.40625 -0.09375 0.40625 -0.078125 C 0.40625 0 0.46875 0 0.59375 0 L 6.453125 0 C 6.578125 0 6.640625 0 6.640625 -0.078125 C 6.640625 -0.09375 6.640625 -0.109375 6.578125 -0.203125 Z M 3.265625 -4.90625 L 5.53125 -0.625 L 0.984375 -0.625 Z M 3.265625 -4.90625 "/>
</g>
<g id="glyph-2-0">
<path d="M 0.1875 -0.296875 C 0.8125 -0.046875 1.296875 -0.09375 1.5625 -0.125 C 2.625 -0.28125 2.765625 -0.984375 2.703125 -1.40625 C 2.625 -1.921875 2.203125 -2.203125 1.875 -2.3125 C 1.359375 -2.453125 0.515625 -2.234375 0.421875 -2.796875 C 0.390625 -3 0.484375 -3.3125 1.03125 -3.390625 C 1.609375 -3.46875 1.859375 -3.34375 2.1875 -3.25 L 2.21875 -3.78125 C 1.75 -3.90625 1.484375 -3.921875 1.03125 -3.859375 C -0.03125 -3.703125 -0.171875 -3.046875 -0.109375 -2.625 C -0.03125 -2.078125 0.484375 -1.84375 0.84375 -1.78125 C 1.109375 -1.734375 1.453125 -1.734375 1.640625 -1.71875 C 1.796875 -1.6875 2.078125 -1.578125 2.125 -1.265625 C 2.15625 -1.0625 2.078125 -0.734375 1.484375 -0.640625 C 0.84375 -0.546875 0.4375 -0.765625 0.203125 -0.84375 Z M 0.1875 -0.296875 "/>
</g>
<g id="glyph-2-1">
<path d="M 0.015625 -1.8125 C 0.15625 -0.828125 0.96875 -0.046875 2.015625 -0.1875 C 2.5 -0.265625 2.875 -0.515625 3.1875 -0.78125 L 3.0625 -1.28125 C 2.765625 -1 2.421875 -0.765625 1.9375 -0.6875 C 1.328125 -0.609375 0.703125 -1.046875 0.5625 -1.859375 L 3.015625 -2.203125 L 2.984375 -2.4375 C 2.71875 -3.78125 1.90625 -3.984375 1.34375 -3.90625 C 0.5 -3.78125 -0.140625 -2.875 0.015625 -1.8125 Z M 0.546875 -2.296875 C 0.5625 -2.6875 0.8125 -3.328125 1.40625 -3.40625 C 1.640625 -3.4375 2.234375 -3.4375 2.5 -2.578125 Z M 0.546875 -2.296875 "/>
</g>
<g id="glyph-2-2">
<path d="M 0.03125 -1.8125 C 0.171875 -0.796875 1.03125 -0.046875 2.015625 -0.1875 C 2.546875 -0.265625 2.90625 -0.515625 3.234375 -0.78125 L 3.109375 -1.3125 C 2.890625 -1.109375 2.546875 -0.796875 1.9375 -0.703125 C 1.265625 -0.609375 0.75 -1.109375 0.640625 -1.890625 C 0.53125 -2.5625 0.78125 -3.296875 1.5625 -3.421875 C 2.171875 -3.5 2.40625 -3.375 2.734375 -3.21875 L 2.765625 -3.765625 C 2.234375 -3.96875 1.984375 -4 1.5 -3.9375 C 0.390625 -3.765625 -0.109375 -2.71875 0.03125 -1.8125 Z M 0.03125 -1.8125 "/>
</g>
<g id="glyph-2-3">
<path d="M 0.21875 -0.9375 C 0.265625 -0.578125 0.609375 0.015625 1.265625 -0.09375 C 2.140625 -0.21875 2.515625 -0.640625 2.5 -0.65625 L 2.546875 -0.375 L 3.15625 -0.453125 L 2.8125 -2.859375 C 2.671875 -3.515625 2.078125 -4.015625 1.328125 -3.90625 C 0.828125 -3.828125 0.484375 -3.65625 0.140625 -3.390625 L 0.265625 -2.84375 C 0.484375 -3.0625 0.796875 -3.359375 1.390625 -3.4375 C 1.484375 -3.453125 1.703125 -3.46875 1.90625 -3.265625 C 2.140625 -3.046875 2.1875 -2.78125 2.21875 -2.5625 L 2.25 -2.296875 C 1.453125 -2.171875 0.09375 -1.78125 0.21875 -0.9375 Z M 0.796875 -1.03125 C 0.71875 -1.53125 1.75 -1.796875 2.3125 -1.875 L 2.390625 -1.375 C 2.453125 -0.875 1.9375 -0.6875 1.59375 -0.640625 C 1.171875 -0.578125 0.828125 -0.765625 0.796875 -1.03125 Z M 0.796875 -1.03125 "/>
</g>
<g id="glyph-2-4">
<path d="M 0.640625 -0.09375 L 1.25 -0.1875 L 0.984375 -2.078125 C 0.890625 -2.65625 0.984375 -3.3125 1.609375 -3.40625 C 2.375 -3.515625 2.46875 -2.921875 2.515625 -2.625 L 2.828125 -0.40625 L 3.4375 -0.5 L 3.109375 -2.765625 C 3.03125 -3.328125 2.859375 -4.078125 1.828125 -3.9375 C 1.15625 -3.828125 0.859375 -3.328125 0.765625 -3.171875 L 0.6875 -3.71875 L 0.125 -3.640625 Z M 0.640625 -0.09375 "/>
</g>
<g id="glyph-2-5">
<path d="M -0.296875 -3.0625 L 0.359375 -3.15625 L 0.65625 -1.03125 C 0.78125 -0.171875 1.203125 -0.078125 1.46875 -0.109375 C 1.828125 -0.171875 2.21875 -0.296875 2.578125 -0.59375 L 2.390625 -1.046875 C 2.28125 -0.953125 2.078125 -0.734375 1.734375 -0.6875 C 1.328125 -0.625 1.25 -1.078125 1.21875 -1.296875 L 0.9375 -3.25 L 2.046875 -3.40625 L 1.984375 -3.875 L 0.875 -3.71875 L 0.734375 -4.703125 L 0.171875 -4.625 L 0.3125 -3.640625 L -0.359375 -3.53125 Z M -0.296875 -3.0625 "/>
</g>
<g id="glyph-3-0">
<path d="M 3.296875 -1.90625 C 3.296875 -2.34375 3.296875 -3.984375 1.828125 -3.984375 C 0.359375 -3.984375 0.359375 -2.34375 0.359375 -1.90625 C 0.359375 -1.484375 0.359375 0.125 1.828125 0.125 C 3.296875 0.125 3.296875 -1.484375 3.296875 -1.90625 Z M 1.828125 -0.0625 C 1.578125 -0.0625 1.171875 -0.1875 1.015625 -0.6875 C 0.921875 -1.03125 0.921875 -1.609375 0.921875 -1.984375 C 0.921875 -2.390625 0.921875 -2.84375 1.015625 -3.171875 C 1.15625 -3.703125 1.609375 -3.78125 1.828125 -3.78125 C 2.09375 -3.78125 2.5 -3.65625 2.625 -3.203125 C 2.71875 -2.890625 2.71875 -2.453125 2.71875 -1.984375 C 2.71875 -1.609375 2.71875 -1 2.625 -0.671875 C 2.453125 -0.140625 2.015625 -0.0625 1.828125 -0.0625 Z M 1.828125 -0.0625 "/>
</g>
<g id="glyph-3-1">
<path d="M 2.421875 -2.5 C 2.421875 -2.609375 2.421875 -2.671875 2.328125 -2.671875 C 2.296875 -2.671875 2.28125 -2.671875 2.203125 -2.59375 C 2.1875 -2.578125 2.171875 -2.578125 2.09375 -2.5 C 1.859375 -2.65625 1.5625 -2.671875 1.4375 -2.671875 C 0.5 -2.671875 0.3125 -2.203125 0.3125 -1.921875 C 0.3125 -1.34375 1.015625 -1.234375 1.484375 -1.15625 C 1.75 -1.109375 2.265625 -1.03125 2.265625 -0.640625 C 2.265625 -0.40625 2.09375 -0.125 1.484375 -0.125 C 0.90625 -0.125 0.671875 -0.46875 0.546875 -0.921875 C 0.53125 -0.96875 0.515625 -1 0.4375 -1 C 0.3125 -1 0.3125 -0.953125 0.3125 -0.828125 L 0.3125 -0.109375 C 0.3125 0 0.3125 0.0625 0.40625 0.0625 C 0.453125 0.0625 0.453125 0.046875 0.5625 -0.046875 L 0.703125 -0.203125 C 1 0.0625 1.359375 0.0625 1.484375 0.0625 C 2.359375 0.0625 2.59375 -0.421875 2.59375 -0.765625 C 2.59375 -1.015625 2.484375 -1.1875 2.34375 -1.296875 C 2.09375 -1.53125 1.859375 -1.5625 1.5 -1.625 C 1.046875 -1.703125 0.640625 -1.765625 0.640625 -2.078125 C 0.640625 -2.25 0.8125 -2.5 1.4375 -2.5 C 1.84375 -2.5 2.171875 -2.34375 2.203125 -1.921875 C 2.203125 -1.84375 2.21875 -1.796875 2.3125 -1.796875 C 2.421875 -1.796875 2.421875 -1.84375 2.421875 -1.953125 Z M 2.421875 -2.5 "/>
</g>
<g id="glyph-3-2">
<path d="M 2.8125 -1.359375 C 2.9375 -1.359375 2.984375 -1.359375 2.984375 -1.5 C 2.984375 -1.953125 2.734375 -2.671875 1.734375 -2.671875 C 0.890625 -2.671875 0.28125 -2.03125 0.28125 -1.3125 C 0.28125 -0.5625 0.96875 0.0625 1.8125 0.0625 C 2.6875 0.0625 2.984375 -0.59375 2.984375 -0.71875 C 2.984375 -0.75 2.96875 -0.8125 2.875 -0.8125 C 2.796875 -0.8125 2.78125 -0.78125 2.765625 -0.703125 C 2.578125 -0.265625 2.125 -0.15625 1.859375 -0.15625 C 1.53125 -0.15625 1.25 -0.296875 1.078125 -0.515625 C 0.859375 -0.796875 0.859375 -1.1875 0.859375 -1.359375 Z M 0.875 -1.53125 C 0.9375 -2.328125 1.484375 -2.484375 1.734375 -2.484375 C 2.5 -2.484375 2.546875 -1.703125 2.546875 -1.53125 Z M 0.875 -1.53125 "/>
</g>
<g id="glyph-3-3">
<path d="M 2.453125 -2.40625 C 2.390625 -2.375 2.328125 -2.296875 2.328125 -2.171875 C 2.328125 -2.015625 2.4375 -1.875 2.609375 -1.875 C 2.796875 -1.875 2.90625 -2.015625 2.90625 -2.171875 C 2.90625 -2.65625 2.28125 -2.671875 1.890625 -2.671875 C 0.796875 -2.671875 0.328125 -1.875 0.328125 -1.296875 C 0.328125 -0.546875 0.984375 0.0625 1.828125 0.0625 C 2.78125 0.0625 2.984375 -0.65625 2.984375 -0.71875 C 2.984375 -0.796875 2.890625 -0.796875 2.875 -0.796875 C 2.796875 -0.796875 2.78125 -0.765625 2.765625 -0.71875 C 2.71875 -0.625 2.65625 -0.453125 2.453125 -0.3125 C 2.328125 -0.21875 2.125 -0.15625 1.890625 -0.15625 C 1.4375 -0.15625 0.890625 -0.484375 0.890625 -1.296875 C 0.890625 -1.5625 0.9375 -1.890625 1.15625 -2.140625 C 1.421875 -2.453125 1.734375 -2.453125 1.921875 -2.453125 C 2.09375 -2.453125 2.296875 -2.453125 2.453125 -2.40625 Z M 2.453125 -2.40625 "/>
</g>
<g id="glyph-4-0">
<path d="M 5.5625 -1.8125 C 5.703125 -1.8125 5.875 -1.8125 5.875 -1.984375 C 5.875 -2.171875 5.703125 -2.171875 5.5625 -2.171875 L 1 -2.171875 C 0.875 -2.171875 0.703125 -2.171875 0.703125 -1.984375 C 0.703125 -1.8125 0.875 -1.8125 1 -1.8125 Z M 5.5625 -1.8125 "/>
</g>
</g>
</defs>
<path fill-rule="nonzero" fill="rgb(100%, 100%, 100%)" fill-opacity="1" d="M 8 143.75 L 8 8 L 246.058594 8 L 246.058594 143.75 Z M 8 143.75 "/>
<path fill="none" stroke-width="0.75" stroke-linecap="butt" stroke-linejoin="round" stroke="rgb(12.548828%, 12.548828%, 12.548828%)" stroke-opacity="1" stroke-miterlimit="10" d="M -6.51875 0.0003125 L 203.375781 0.0003125 " transform="matrix(1, 0, 0, -1, 32.675, 121.93)"/>
<path fill-rule="nonzero" fill="rgb(12.548828%, 12.548828%, 12.548828%)" fill-opacity="1" stroke-width="0.75" stroke-linecap="butt" stroke-linejoin="miter" stroke="rgb(12.548828%, 12.548828%, 12.548828%)" stroke-opacity="1" stroke-miterlimit="10" d="M 1.975684 0.0003125 C 1.733496 0.0589063 0.66709 0.39875 -0.00087875 0.769844 L -0.00087875 -0.769219 C 0.66709 -0.398125 1.733496 -0.0582812 1.975684 0.0003125 Z M 1.975684 0.0003125 " transform="matrix(1, 0, 0, -1, 236.05166, 121.93)"/>
<g fill="rgb(12.548828%, 12.548828%, 12.548828%)" fill-opacity="1">
<use xlink:href="#glyph-0-0" x="237.291" y="129.736"/>
</g>
<path fill="none" stroke-width="0.75" stroke-linecap="butt" stroke-linejoin="round" stroke="rgb(12.548828%, 12.548828%, 12.548828%)" stroke-opacity="1" stroke-miterlimit="10" d="M 0.00078125 -6.519219 L 0.00078125 102.320625 " transform="matrix(1, 0, 0, -1, 32.675, 121.93)"/>
<path fill-rule="nonzero" fill="rgb(12.548828%, 12.548828%, 12.548828%)" fill-opacity="1" stroke-width="0.75" stroke-linecap="butt" stroke-linejoin="miter" stroke="rgb(12.548828%, 12.548828%, 12.548828%)" stroke-opacity="1" stroke-miterlimit="10" d="M 1.976588 -0.00078125 C 1.730494 0.0617188 0.667994 0.397656 0.000025 0.76875 L 0.000025 -0.770312 C 0.667994 -0.399219 1.730494 -0.059375 1.976588 -0.00078125 Z M 1.976588 -0.00078125 " transform="matrix(0, -1, -1, 0, 32.675, 19.6094)"/>
<g fill="rgb(12.548828%, 12.548828%, 12.548828%)" fill-opacity="1">
<use xlink:href="#glyph-0-1" x="12" y="17.978"/>
</g>
<g fill="rgb(12.548828%, 12.548828%, 12.548828%)" fill-opacity="1">
<use xlink:href="#glyph-1-0" x="16.947" y="17.978"/>
</g>
<g fill="rgb(12.548828%, 12.548828%, 12.548828%)" fill-opacity="1">
<use xlink:href="#glyph-0-0" x="20.24" y="17.978"/>
</g>
<g fill="rgb(12.548828%, 12.548828%, 12.548828%)" fill-opacity="1">
<use xlink:href="#glyph-1-1" x="25.007" y="17.978"/>
</g>
<path fill="none" stroke-width="1.1" stroke-linecap="butt" stroke-linejoin="round" stroke="rgb(67.059326%, 18.824768%, 9.803772%)" stroke-opacity="1" stroke-miterlimit="10" d="M 4.891406 61.937813 C 4.891406 61.937813 6.29375 60.824531 6.832812 60.402656 C 7.371875 59.980781 8.235156 59.312813 8.774219 58.902656 C 9.313281 58.4925 10.176562 57.844063 10.715625 57.441719 C 11.254687 57.043281 12.121875 56.406563 12.660937 56.019844 C 13.2 55.629219 14.063281 55.012031 14.602344 54.629219 C 15.141406 54.250313 16.004687 53.64875 16.54375 53.281563 C 17.082812 52.910469 17.946094 52.328438 18.485156 51.969063 C 19.024219 51.609688 19.891406 51.039375 20.430469 50.691719 C 20.969531 50.344063 21.832812 49.789375 22.371875 49.453438 C 22.910937 49.113594 23.774219 48.578438 24.313281 48.250313 C 24.852344 47.922188 25.715625 47.402656 26.254687 47.08625 C 26.79375 46.765938 27.660937 46.265938 28.2 45.957344 C 28.739062 45.64875 29.602344 45.164375 30.141406 44.8675 C 30.680469 44.566719 31.54375 44.097969 32.082812 43.812813 C 32.621875 43.52375 33.485156 43.070625 34.024219 42.793281 C 34.563281 42.519844 35.430469 42.082344 35.969531 41.816719 C 36.508594 41.547188 37.371875 41.129219 37.910937 40.871406 C 38.45 40.6175 39.313281 40.21125 39.852344 39.965156 C 40.391406 39.719063 41.254687 39.332344 41.79375 39.097969 C 42.332812 38.863594 43.2 38.4925 43.739062 38.265938 C 44.278125 38.039375 45.141406 37.687813 45.680469 37.472969 C 46.219531 37.254219 47.082812 36.918281 47.621875 36.715156 C 48.160937 36.508125 49.024219 36.187813 49.563281 35.9925 C 50.102344 35.797188 50.969531 35.4925 51.508594 35.308906 C 52.047656 35.125313 52.910937 34.83625 53.45 34.664375 C 53.989062 34.488594 54.852344 34.215156 55.391406 34.055 C 55.930469 33.890938 56.79375 33.633125 57.332812 33.480781 C 57.871875 33.328438 58.739062 33.090156 59.278125 32.945625 C 59.817187 32.801094 60.680469 32.578438 61.219531 32.445625 C 61.758594 32.312813 62.621875 32.109688 63.160937 31.984688 C 63.7 31.863594 64.567187 31.676094 65.10625 31.562813 C 65.641406 31.449531 66.508594 31.277656 67.047656 31.172188 C 67.586719 31.070625 68.45 30.914375 68.989062 30.824531 C 69.528125 30.730781 70.391406 30.594063 70.930469 30.512031 C 71.469531 30.43 72.336719 30.305 72.875781 30.234688 C 73.414844 30.164375 74.278125 30.055 74.817187 29.996406 C 75.35625 29.933906 76.219531 29.844063 76.758594 29.793281 C 77.297656 29.7425 78.160937 29.668281 78.7 29.629219 C 79.239062 29.58625 80.10625 29.531563 80.645312 29.500313 C 81.184375 29.469063 82.047656 29.43 82.586719 29.410469 C 83.125781 29.390938 83.989062 29.363594 84.528125 29.355781 C 85.067187 29.344063 85.930469 29.33625 86.469531 29.340156 C 87.008594 29.340156 87.875781 29.347969 88.414844 29.359688 C 88.953906 29.3675 89.817187 29.394844 90.35625 29.414375 C 90.895312 29.437813 91.758594 29.476875 92.297656 29.508125 C 92.836719 29.539375 93.7 29.597969 94.239062 29.640938 C 94.778125 29.683906 95.645312 29.758125 96.184375 29.808906 C 96.723437 29.859688 97.586719 29.953438 98.125781 30.015938 C 98.664844 30.078438 99.528125 30.183906 100.067187 30.258125 C 100.60625 30.328438 101.469531 30.453438 102.008594 30.535469 C 102.547656 30.6175 103.414844 30.758125 103.953906 30.851875 C 104.492969 30.945625 105.35625 31.101875 105.895312 31.207344 C 106.434375 31.308906 107.297656 31.484688 107.836719 31.597969 C 108.375781 31.71125 109.239062 31.89875 109.778125 32.02375 C 110.317187 32.14875 111.184375 32.355781 111.723437 32.488594 C 112.2625 32.621406 113.125781 32.847969 113.664844 32.9925 C 114.203906 33.133125 115.067187 33.375313 115.60625 33.527656 C 116.145312 33.683906 117.008594 33.941719 117.547656 34.105781 C 118.086719 34.269844 118.953906 34.543281 119.492969 34.719063 C 120.032031 34.890938 120.895312 35.18 121.434375 35.3675 C 121.973437 35.551094 122.836719 35.859688 123.375781 36.055 C 123.914844 36.250313 124.778125 36.570625 125.317187 36.777656 C 125.85625 36.984688 126.723437 37.324531 127.2625 37.539375 C 127.801562 37.754219 128.664844 38.109688 129.203906 38.33625 C 129.742969 38.562813 130.60625 38.933906 131.145312 39.172188 C 131.684375 39.410469 132.551562 39.797188 133.086719 40.043281 C 133.625781 40.289375 134.492969 40.695625 135.032031 40.953438 C 135.571094 41.21125 136.434375 41.629219 136.973437 41.89875 C 137.5125 42.168281 138.375781 42.605781 138.914844 42.883125 C 139.453906 43.160469 140.321094 43.613594 140.860156 43.902656 C 141.399219 44.191719 142.2625 44.660469 142.801562 44.96125 C 143.340625 45.258125 144.203906 45.746406 144.742969 46.055 C 145.282031 46.363594 146.145312 46.8675 146.684375 47.183906 C 147.223437 47.504219 148.090625 48.02375 148.629687 48.351875 C 149.16875 48.683906 150.032031 49.219063 150.571094 49.558906 C 151.110156 49.89875 151.973437 50.449531 152.5125 50.801094 C 153.051562 51.152656 153.914844 51.719063 154.453906 52.082344 C 154.992969 52.441719 155.860156 53.027656 156.399219 53.394844 C 156.938281 53.765938 157.801562 54.3675 158.340625 54.750313 C 158.879687 55.129219 159.742969 55.750313 160.282031 56.140938 C 160.821094 56.531563 161.684375 57.168281 162.223437 57.566719 C 162.7625 57.969063 163.629687 58.621406 164.16875 59.031563 C 164.707812 59.445625 165.571094 60.113594 166.110156 60.535469 C 166.649219 60.957344 167.5125 61.640938 168.051562 62.074531 C 168.590625 62.504219 169.453906 63.207344 169.992969 63.64875 C 170.532031 64.090156 171.399219 64.808906 171.938281 65.262031 C 172.477344 65.715156 173.340625 66.449531 173.879687 66.910469 C 174.41875 67.375313 175.282031 68.125313 175.821094 68.597969 C 176.360156 69.070625 177.223437 69.840156 177.7625 70.320625 C 178.301562 70.805 179.16875 71.590156 179.707812 72.082344 C 180.246875 72.578438 181.110156 73.375313 181.649219 73.879219 C 182.188281 74.383125 183.051562 75.199531 183.590625 75.715156 C 184.129687 76.230781 184.992969 77.062813 185.532031 77.58625 C 186.071094 78.113594 186.938281 78.96125 187.477344 79.496406 C 188.016406 80.031563 188.879687 80.89875 189.41875 81.441719 C 189.957812 81.988594 190.821094 82.871406 191.360156 83.426094 C 191.899219 83.980781 192.7625 84.879219 193.301562 85.445625 C 193.840625 86.012031 194.707812 86.926094 195.246875 87.504219 C 195.785937 88.078438 197.188281 89.597969 197.188281 89.597969 " transform="matrix(1, 0, 0, -1, 32.675, 121.93)"/>
<g fill="rgb(67.059326%, 18.824768%, 9.803772%)" fill-opacity="1">
<use xlink:href="#glyph-0-1" x="234.27" y="29.388"/>
</g>
<path fill="none" stroke-width="0.75" stroke-linecap="butt" stroke-linejoin="round" stroke="rgb(0%, 46.273804%, 54.902649%)" stroke-opacity="1" stroke-miterlimit="10" d="M 18.907031 34.539375 L 183.203906 58.199531 " transform="matrix(1, 0, 0, -1, 32.675, 121.93)"/>
<g fill="rgb(0%, 46.273804%, 54.902649%)" fill-opacity="1">
<use xlink:href="#glyph-2-0" x="163.798" y="66.724"/>
<use xlink:href="#glyph-2-1" x="166.819263" y="66.28892"/>
<use xlink:href="#glyph-2-2" x="170.32172" y="65.784545"/>
<use xlink:href="#glyph-2-3" x="173.824177" y="65.28017"/>
<use xlink:href="#glyph-2-4" x="177.610617" y="64.734899"/>
<use xlink:href="#glyph-2-5" x="181.688928" y="64.147598"/>
</g>
<path fill="none" stroke-width="0.49998" stroke-linecap="butt" stroke-linejoin="round" stroke="rgb(39.99939%, 39.99939%, 39.99939%)" stroke-opacity="0.25" stroke-dasharray="3.00003 2.00002" stroke-miterlimit="10" d="M 44.008594 38.152656 L 44.008594 0.0003125 " transform="matrix(1, 0, 0, -1, 32.675, 121.93)"/>
<path fill="none" stroke-width="0.49998" stroke-linecap="butt" stroke-linejoin="round" stroke="rgb(39.99939%, 39.99939%, 39.99939%)" stroke-opacity="0.25" stroke-dasharray="3.00003 2.00002" stroke-miterlimit="10" d="M 158.102344 54.582344 L 158.102344 0.0003125 " transform="matrix(1, 0, 0, -1, 32.675, 121.93)"/>
<path fill="none" stroke-width="0.49998" stroke-linecap="butt" stroke-linejoin="round" stroke="rgb(39.99939%, 39.99939%, 39.99939%)" stroke-opacity="0.25" stroke-dasharray="3.00003 2.00002" stroke-miterlimit="10" d="M 44.008594 38.152656 L 158.102344 38.152656 L 158.102344 54.582344 " transform="matrix(1, 0, 0, -1, 32.675, 121.93)"/>
<path fill-rule="nonzero" fill="rgb(100%, 100%, 100%)" fill-opacity="1" stroke-width="0.75" stroke-linecap="butt" stroke-linejoin="round" stroke="rgb(12.548828%, 12.548828%, 12.548828%)" stroke-opacity="1" stroke-miterlimit="10" d="M 45.508594 38.152656 C 45.508594 38.980781 44.836719 39.652656 44.008594 39.652656 C 43.180469 39.652656 42.508594 38.980781 42.508594 38.152656 C 42.508594 37.324531 43.180469 36.652656 44.008594 36.652656 C 44.836719 36.652656 45.508594 37.324531 45.508594 38.152656 Z M 45.508594 38.152656 " transform="matrix(1, 0, 0, -1, 32.675, 121.93)"/>
<g fill="rgb(12.548828%, 12.548828%, 12.548828%)" fill-opacity="1">
<use xlink:href="#glyph-0-2" x="47.905" y="66.665"/>
</g>
<g fill="rgb(12.548828%, 12.548828%, 12.548828%)" fill-opacity="1">
<use xlink:href="#glyph-1-2" x="56.803" y="66.665"/>
</g>
<g fill="rgb(12.548828%, 12.548828%, 12.548828%)" fill-opacity="1">
<use xlink:href="#glyph-1-0" x="65.740681" y="66.665"/>
</g>
<g fill="rgb(12.548828%, 12.548828%, 12.548828%)" fill-opacity="1">
<use xlink:href="#glyph-0-0" x="69.035" y="66.665"/>
</g>
<g fill="rgb(12.548828%, 12.548828%, 12.548828%)" fill-opacity="1">
<use xlink:href="#glyph-3-0" x="73.802" y="67.772"/>
</g>
<g fill="rgb(12.548828%, 12.548828%, 12.548828%)" fill-opacity="1">
<use xlink:href="#glyph-0-3" x="77.953" y="66.665"/>
</g>
<g fill="rgb(12.548828%, 12.548828%, 12.548828%)" fill-opacity="1">
<use xlink:href="#glyph-0-1" x="81.715689" y="66.665"/>
</g>
<g fill="rgb(12.548828%, 12.548828%, 12.548828%)" fill-opacity="1">
<use xlink:href="#glyph-1-0" x="86.663" y="66.665"/>
</g>
<g fill="rgb(12.548828%, 12.548828%, 12.548828%)" fill-opacity="1">
<use xlink:href="#glyph-0-0" x="89.956" y="66.665"/>
</g>
<g fill="rgb(12.548828%, 12.548828%, 12.548828%)" fill-opacity="1">
<use xlink:href="#glyph-3-0" x="94.723" y="67.772"/>
</g>
<g fill="rgb(12.548828%, 12.548828%, 12.548828%)" fill-opacity="1">
<use xlink:href="#glyph-1-1" x="98.874" y="66.665"/>
<use xlink:href="#glyph-1-1" x="102.167249" y="66.665"/>
</g>
<path fill-rule="nonzero" fill="rgb(100%, 100%, 100%)" fill-opacity="1" stroke-width="0.75" stroke-linecap="butt" stroke-linejoin="round" stroke="rgb(12.548828%, 12.548828%, 12.548828%)" stroke-opacity="1" stroke-miterlimit="10" d="M 159.602344 54.582344 C 159.602344 55.410469 158.930469 56.082344 158.102344 56.082344 C 157.274219 56.082344 156.602344 55.410469 156.602344 54.582344 C 156.602344 53.754219 157.274219 53.082344 158.102344 53.082344 C 158.930469 53.082344 159.602344 53.754219 159.602344 54.582344 Z M 159.602344 54.582344 " transform="matrix(1, 0, 0, -1, 32.675, 121.93)"/>
<g fill="rgb(12.548828%, 12.548828%, 12.548828%)" fill-opacity="1">
<use xlink:href="#glyph-0-4" x="81.122" y="105.993"/>
</g>
<g fill="rgb(12.548828%, 12.548828%, 12.548828%)" fill-opacity="1">
<use xlink:href="#glyph-1-2" x="90.135" y="105.993"/>
</g>
<g fill="rgb(12.548828%, 12.548828%, 12.548828%)" fill-opacity="1">
<use xlink:href="#glyph-1-0" x="99.072681" y="105.993"/>
</g>
<g fill="rgb(12.548828%, 12.548828%, 12.548828%)" fill-opacity="1">
<use xlink:href="#glyph-0-0" x="102.368" y="105.993"/>
</g>
<g fill="rgb(12.548828%, 12.548828%, 12.548828%)" fill-opacity="1">
<use xlink:href="#glyph-3-0" x="107.134" y="107.1"/>
</g>
<g fill="rgb(12.548828%, 12.548828%, 12.548828%)" fill-opacity="1">
<use xlink:href="#glyph-1-3" x="113.167" y="105.993"/>
</g>
<g fill="rgb(12.548828%, 12.548828%, 12.548828%)" fill-opacity="1">
<use xlink:href="#glyph-1-4" x="121.634445" y="105.993"/>
</g>
<g fill="rgb(12.548828%, 12.548828%, 12.548828%)" fill-opacity="1">
<use xlink:href="#glyph-0-0" x="128.693" y="105.993"/>
<use xlink:href="#glyph-0-3" x="133.459923" y="105.993"/>
</g>
<g fill="rgb(12.548828%, 12.548828%, 12.548828%)" fill-opacity="1">
<use xlink:href="#glyph-0-1" x="137.222612" y="105.993"/>
</g>
<g fill="rgb(12.548828%, 12.548828%, 12.548828%)" fill-opacity="1">
<use xlink:href="#glyph-1-0" x="142.17" y="105.993"/>
</g>
<g fill="rgb(12.548828%, 12.548828%, 12.548828%)" fill-opacity="1">
<use xlink:href="#glyph-0-0" x="145.463" y="105.993"/>
</g>
<g fill="rgb(12.548828%, 12.548828%, 12.548828%)" fill-opacity="1">
<use xlink:href="#glyph-3-0" x="150.23" y="107.1"/>
</g>
<g fill="rgb(12.548828%, 12.548828%, 12.548828%)" fill-opacity="1">
<use xlink:href="#glyph-1-3" x="156.263" y="105.993"/>
</g>
<g fill="rgb(12.548828%, 12.548828%, 12.548828%)" fill-opacity="1">
<use xlink:href="#glyph-1-4" x="164.730445" y="105.993"/>
</g>
<g fill="rgb(12.548828%, 12.548828%, 12.548828%)" fill-opacity="1">
<use xlink:href="#glyph-0-0" x="171.788" y="105.993"/>
</g>
<g fill="rgb(12.548828%, 12.548828%, 12.548828%)" fill-opacity="1">
<use xlink:href="#glyph-1-1" x="176.555" y="105.993"/>
<use xlink:href="#glyph-1-1" x="179.848249" y="105.993"/>
</g>
<path fill="none" stroke-width="0.75" stroke-linecap="butt" stroke-linejoin="round" stroke="rgb(12.548828%, 12.548828%, 12.548828%)" stroke-opacity="1" stroke-miterlimit="10" d="M 47.633594 -7.999687 L 154.477344 -7.999687 " transform="matrix(1, 0, 0, -1, 32.675, 121.93)"/>
<path fill-rule="nonzero" fill="rgb(12.548828%, 12.548828%, 12.548828%)" fill-opacity="1" stroke-width="0.75" stroke-linecap="butt" stroke-linejoin="miter" stroke="rgb(12.548828%, 12.548828%, 12.548828%)" stroke-opacity="1" stroke-miterlimit="10" d="M 1.976409 -0.0004025 C 1.730315 0.0581912 0.667815 0.398035 -0.00015375 0.769129 L -0.00015375 -0.769934 C 0.667815 -0.39884 1.730315 -0.0589963 1.976409 -0.0004025 Z M 1.976409 -0.0004025 " transform="matrix(-1, 0, 0, 1, 80.30844, 129.93009)"/>
<path fill-rule="nonzero" fill="rgb(12.548828%, 12.548828%, 12.548828%)" fill-opacity="1" stroke-width="0.75" stroke-linecap="butt" stroke-linejoin="miter" stroke="rgb(12.548828%, 12.548828%, 12.548828%)" stroke-opacity="1" stroke-miterlimit="10" d="M 1.975236 0.0004025 C 1.733049 0.0589963 0.666642 0.39884 -0.00132625 0.769934 L -0.00132625 -0.769129 C 0.666642 -0.398035 1.733049 -0.0581912 1.975236 0.0004025 Z M 1.975236 0.0004025 " transform="matrix(1, 0, 0, -1, 187.15367, 129.93009)"/>
<g fill="rgb(12.548828%, 12.548828%, 12.548828%)" fill-opacity="1">
<use xlink:href="#glyph-1-4" x="127.818" y="139.751"/>
</g>
<g fill="rgb(12.548828%, 12.548828%, 12.548828%)" fill-opacity="1">
<use xlink:href="#glyph-0-0" x="134.875" y="139.751"/>
</g>
<path fill="none" stroke-width="0.75" stroke-linecap="butt" stroke-linejoin="round" stroke="rgb(12.548828%, 12.548828%, 12.548828%)" stroke-opacity="1" stroke-miterlimit="10" d="M 166.102344 41.777656 L 166.102344 50.957344 " transform="matrix(1, 0, 0, -1, 32.675, 121.93)"/>
<path fill-rule="nonzero" fill="rgb(12.548828%, 12.548828%, 12.548828%)" fill-opacity="1" stroke-width="0.75" stroke-linecap="butt" stroke-linejoin="miter" stroke="rgb(12.548828%, 12.548828%, 12.548828%)" stroke-opacity="1" stroke-miterlimit="10" d="M 1.97285 -0.00147625 C 1.730662 0.0610238 0.668162 0.400868 0.00019375 0.768055 L 0.00019375 -0.767101 C 0.668162 -0.399914 1.730662 -0.06007 1.97285 -0.00147625 Z M 1.97285 -0.00147625 " transform="matrix(0, 1, 1, 0, 198.77882, 80.15215)"/>
<path fill-rule="nonzero" fill="rgb(12.548828%, 12.548828%, 12.548828%)" fill-opacity="1" stroke-width="0.75" stroke-linecap="butt" stroke-linejoin="miter" stroke="rgb(12.548828%, 12.548828%, 12.548828%)" stroke-opacity="1" stroke-miterlimit="10" d="M 1.975506 0.00147625 C 1.733319 0.06007 0.666913 0.399914 -0.00105625 0.767101 L -0.00105625 -0.768055 C 0.666913 -0.400868 1.733319 -0.0610238 1.975506 0.00147625 Z M 1.975506 0.00147625 " transform="matrix(0, -1, -1, 0, 198.77882, 70.9716)"/>
<g fill="rgb(12.548828%, 12.548828%, 12.548828%)" fill-opacity="1">
<use xlink:href="#glyph-1-4" x="203.152" y="77.555"/>
</g>
<g fill="rgb(12.548828%, 12.548828%, 12.548828%)" fill-opacity="1">
<use xlink:href="#glyph-0-1" x="210.209" y="77.555"/>
</g>
<g fill="rgb(12.548828%, 12.548828%, 12.548828%)" fill-opacity="1">
<use xlink:href="#glyph-0-5" x="48.46" y="39.385"/>
</g>
<g fill="rgb(12.548828%, 12.548828%, 12.548828%)" fill-opacity="1">
<use xlink:href="#glyph-3-1" x="55.95" y="40.382"/>
<use xlink:href="#glyph-3-2" x="58.867059" y="40.382"/>
<use xlink:href="#glyph-3-3" x="62.132611" y="40.382"/>
</g>
<g fill="rgb(12.548828%, 12.548828%, 12.548828%)" fill-opacity="1">
<use xlink:href="#glyph-1-2" x="68.248" y="39.385"/>
</g>
<g fill="rgb(12.548828%, 12.548828%, 12.548828%)" fill-opacity="1">
<use xlink:href="#glyph-1-4" x="78.383" y="33.836"/>
</g>
<g fill="rgb(12.548828%, 12.548828%, 12.548828%)" fill-opacity="1">
<use xlink:href="#glyph-0-1" x="85.44" y="33.836"/>
</g>
<path fill="none" stroke-width="0.359" stroke-linecap="butt" stroke-linejoin="round" stroke="rgb(12.548828%, 12.548828%, 12.548828%)" stroke-opacity="1" stroke-miterlimit="10" d="M -0.0001875 -0.00153125 L 12.003719 -0.00153125 " transform="matrix(1, 0, 0, -1, 78.383, 37.393)"/>
<g fill="rgb(12.548828%, 12.548828%, 12.548828%)" fill-opacity="1">
<use xlink:href="#glyph-1-4" x="78.473" y="45.356"/>
</g>
<g fill="rgb(12.548828%, 12.548828%, 12.548828%)" fill-opacity="1">
<use xlink:href="#glyph-0-0" x="85.53" y="45.356"/>
</g>
<g fill="rgb(12.548828%, 12.548828%, 12.548828%)" fill-opacity="1">
<use xlink:href="#glyph-1-2" x="93.934" y="39.385"/>
</g>
<g fill="rgb(12.548828%, 12.548828%, 12.548828%)" fill-opacity="1">
<use xlink:href="#glyph-0-1" x="104.069" y="33.836"/>
</g>
<g fill="rgb(12.548828%, 12.548828%, 12.548828%)" fill-opacity="1">
<use xlink:href="#glyph-1-0" x="109.016" y="33.836"/>
</g>
<g fill="rgb(12.548828%, 12.548828%, 12.548828%)" fill-opacity="1">
<use xlink:href="#glyph-0-0" x="112.309" y="33.836"/>
</g>
<g fill="rgb(12.548828%, 12.548828%, 12.548828%)" fill-opacity="1">
<use xlink:href="#glyph-3-0" x="117.076" y="34.942"/>
</g>
<g fill="rgb(12.548828%, 12.548828%, 12.548828%)" fill-opacity="1">
<use xlink:href="#glyph-1-3" x="123.109" y="33.836"/>
</g>
<g fill="rgb(12.548828%, 12.548828%, 12.548828%)" fill-opacity="1">
<use xlink:href="#glyph-1-4" x="131.576445" y="33.836"/>
</g>
<g fill="rgb(12.548828%, 12.548828%, 12.548828%)" fill-opacity="1">
<use xlink:href="#glyph-0-0" x="138.634" y="33.836"/>
</g>
<g fill="rgb(12.548828%, 12.548828%, 12.548828%)" fill-opacity="1">
<use xlink:href="#glyph-1-1" x="143.401" y="33.836"/>
</g>
<g fill="rgb(12.548828%, 12.548828%, 12.548828%)" fill-opacity="1">
<use xlink:href="#glyph-4-0" x="148.576" y="33.836"/>
</g>
<g fill="rgb(12.548828%, 12.548828%, 12.548828%)" fill-opacity="1">
<use xlink:href="#glyph-0-1" x="157.044" y="33.836"/>
</g>
<g fill="rgb(12.548828%, 12.548828%, 12.548828%)" fill-opacity="1">
<use xlink:href="#glyph-1-0" x="161.991" y="33.836"/>
</g>
<g fill="rgb(12.548828%, 12.548828%, 12.548828%)" fill-opacity="1">
<use xlink:href="#glyph-0-0" x="165.284" y="33.836"/>
</g>
<g fill="rgb(12.548828%, 12.548828%, 12.548828%)" fill-opacity="1">
<use xlink:href="#glyph-3-0" x="170.051" y="34.942"/>
</g>
<g fill="rgb(12.548828%, 12.548828%, 12.548828%)" fill-opacity="1">
<use xlink:href="#glyph-1-1" x="174.202" y="33.836"/>
</g>
<path fill="none" stroke-width="0.359" stroke-linecap="butt" stroke-linejoin="round" stroke="rgb(12.548828%, 12.548828%, 12.548828%)" stroke-opacity="1" stroke-miterlimit="10" d="M 0.0013125 -0.00153125 L 73.427094 -0.00153125 " transform="matrix(1, 0, 0, -1, 104.069, 37.393)"/>
<g fill="rgb(12.548828%, 12.548828%, 12.548828%)" fill-opacity="1">
<use xlink:href="#glyph-1-4" x="134.87" y="45.356"/>
</g>
<g fill="rgb(12.548828%, 12.548828%, 12.548828%)" fill-opacity="1">
<use xlink:href="#glyph-0-0" x="141.927" y="45.356"/>
</g>
</svg>
