<?xml version="1.0" encoding="UTF-8"?>
<svg xmlns="http://www.w3.org/2000/svg" xmlns:xlink="http://www.w3.org/1999/xlink" width="436.879pt" height="347.992pt" viewBox="0 0 436.879 347.992">
<path fill="none" stroke-width="0.3985" stroke-linecap="butt" stroke-linejoin="miter" stroke="rgb(0%, 0%, 0%)" stroke-opacity="1" stroke-miterlimit="10" d="M -147.295375 85.038937 L 147.294469 -85.039188 " transform="matrix(1, 0, 0, -1, 218.436, 217.578)"/>
<path fill="none" stroke-width="0.3985" stroke-linecap="butt" stroke-linejoin="miter" stroke="rgb(0%, 0%, 0%)" stroke-opacity="1" stroke-miterlimit="10" d="M -147.295375 -85.039188 L 147.294469 85.038937 " transform="matrix(1, 0, 0, -1, 218.436, 217.578)"/>
<path fill="none" stroke-width="0.3985" stroke-linecap="butt" stroke-linejoin="miter" stroke="rgb(0%, 0%, 0%)" stroke-opacity="1" stroke-miterlimit="10" d="M 147.294469 -85.039188 L 157.310094 -78.82825 L 166.552281 -72.226688 L 174.962437 -65.261844 L 182.497594 -57.972781 L 189.122594 -50.398563 L 194.806187 -42.570438 L 199.521031 -34.531375 L 203.247594 -26.316531 L 205.954625 -17.972781 L 207.638219 -9.543094 L 208.28275 -1.062625 L 207.896031 7.42175 L 206.474156 15.874875 L 204.017125 24.242062 L 200.548375 32.492062 L 196.083531 40.578 L 190.634312 48.460812 L 184.239781 56.105344 L 176.923375 63.468625 L 168.731969 70.519406 L 159.696812 77.214719 L 149.868687 83.527219 L 139.294469 89.417844 L 128.021031 94.867062 L 116.110875 99.843625 L 103.618687 104.324094 L 90.614781 108.285031 L 77.15775 111.703 L 63.321812 114.566281 L 49.161656 116.85925 L 34.763219 118.570187 L 20.189 119.691281 L 5.513219 120.218625 L -9.186 120.1405 L -23.84225 119.468625 L -38.377406 118.199094 L -52.725063 116.343625 L -66.811 113.906125 L -80.557094 110.902219 L -93.912563 107.347531 L -106.795375 103.253781 L -119.143031 98.648312 L -130.896938 93.550656 L -142.002406 87.98425 L -152.396938 81.98425 L -162.033656 75.578 L -170.861781 68.788937 L -178.838344 61.660031 L -185.928188 54.222531 L -192.084438 46.511594 L -197.287563 38.574094 L -201.510219 30.441281 L -204.728969 22.160031 L -206.924281 13.7655 L -208.09225 5.304562 L -208.221156 -3.179813 L -207.311 -11.656375 L -205.3735 -20.070438 L -202.412563 -28.382938 L -198.436 -36.554813 L -193.478969 -44.547 L -187.557094 -52.316531 L -180.701625 -59.824344 L -172.939906 -67.035281 L -164.318813 -73.910281 L -154.881313 -80.418094 L -144.674281 -86.523563 L -133.736781 -92.199344 L -122.139125 -97.418094 L -109.932094 -102.148563 L -97.178188 -106.367313 L -83.943813 -110.062625 L -70.283656 -113.207156 L -56.275844 -115.789188 L -41.990688 -117.789188 L -27.494594 -119.207156 L -12.861781 -120.027469 L 1.837437 -120.254031 L 16.524937 -119.879031 L 31.134312 -118.906375 L 45.579625 -117.343875 L 59.806187 -115.195438 L 73.728062 -112.472781 L 87.290562 -109.191531 L 100.411656 -105.363406 L 113.036656 -101.011844 L 125.09525 -96.156375 L 136.53275 -90.824344 L 147.290562 -85.039188 Z M 147.294469 -85.039188 " transform="matrix(1, 0, 0, -1, 218.436, 217.578)"/>
<path fill-rule="nonzero" fill="rgb(54.998779%, 54.998779%, 100%)" fill-opacity="0.25" stroke-width="0.3985" stroke-linecap="butt" stroke-linejoin="miter" stroke="rgb(0%, 0%, 44.999695%)" stroke-opacity="1" stroke-miterlimit="10" d="M 12.274937 -7.086063 L 14.083531 -5.8595 L 15.528844 -4.476688 L 16.571812 -2.980594 L 17.185094 -1.406375 L 17.353062 0.203 L 17.071812 1.804562 L 16.349156 3.363156 L 15.204625 4.835812 L 13.665562 6.179562 L 11.771031 7.367062 L 9.571812 8.35925 L 7.122594 9.1405 L 4.493687 9.679562 L 1.743687 9.972531 L -1.049281 10.003781 L -3.814906 9.777219 L -6.482875 9.29675 L -8.978969 8.578 L -11.2485 7.632687 L -13.221156 6.492062 L -14.853969 5.183469 L -16.103969 3.742062 L -16.932094 2.203 L -17.326625 0.605344 L -17.271938 -1.007938 L -16.768031 -2.593875 L -15.830531 -4.113406 L -14.478969 -5.527469 L -12.756313 -6.797 L -10.705531 -7.89075 L -8.3735 -8.777469 L -5.826625 -9.441531 L -3.127406 -9.855594 L -0.350063 -10.019656 L 2.439 -9.922 L 5.165562 -9.566531 L 7.755406 -8.964969 L 10.146031 -8.132938 Z M 12.274937 -7.086063 " transform="matrix(1, 0, 0, -1, 218.436, 217.578)"/>
<path fill-rule="nonzero" fill="rgb(54.998779%, 54.998779%, 100%)" fill-opacity="0.25" stroke-width="0.3985" stroke-linecap="butt" stroke-linejoin="miter" stroke="rgb(0%, 0%, 44.999695%)" stroke-opacity="1" stroke-miterlimit="10" d="M -12.275844 -21.261844 L -10.463344 -20.031375 L -9.021938 -18.652469 L -7.978969 -17.156375 L -7.361781 -15.582156 L -7.193813 -13.972781 L -7.475063 -12.367313 L -8.197719 -10.808719 L -9.346156 -9.339969 L -10.885219 -7.992313 L -12.77975 -6.808719 L -14.978969 -5.812625 L -17.424281 -5.035281 L -20.057094 -4.492313 L -22.803188 -4.20325 L -25.596156 -4.172 L -28.361781 -4.398563 L -31.02975 -4.875125 L -33.52975 -5.597781 L -35.795375 -6.539188 L -37.771938 -7.679813 L -39.40475 -8.988406 L -40.650844 -10.429813 L -41.482875 -11.972781 L -41.8735 -13.566531 L -41.818813 -15.179813 L -41.314906 -16.76575 L -40.377406 -18.285281 L -39.02975 -19.699344 L -37.307094 -20.968875 L -35.256313 -22.062625 L -32.924281 -22.95325 L -30.377406 -23.613406 L -27.678188 -24.031375 L -24.900844 -24.191531 L -22.111781 -24.093875 L -19.385219 -23.742313 L -16.795375 -23.14075 L -14.40475 -22.304813 L -12.275844 -21.257938 Z M -12.275844 -21.261844 " transform="matrix(1, 0, 0, -1, 218.436, 217.578)"/>
<path fill-rule="nonzero" fill="rgb(54.998779%, 54.998779%, 100%)" fill-opacity="0.25" stroke-width="0.3985" stroke-linecap="butt" stroke-linejoin="miter" stroke="rgb(0%, 0%, 44.999695%)" stroke-opacity="1" stroke-miterlimit="10" d="M -36.822719 -35.433719 L -35.014125 -34.20325 L -33.568813 -32.824344 L -32.525844 -31.32825 L -31.912563 -29.754031 L -31.744594 -28.144656 L -32.025844 -26.539188 L -32.7485 -24.980594 L -33.893031 -23.511844 L -35.436 -22.164188 L -37.326625 -20.980594 L -39.525844 -19.988406 L -41.975063 -19.207156 L -44.603969 -18.668094 L -47.353969 -18.375125 L -50.146938 -18.343875 L -52.912563 -18.570438 L -55.580531 -19.050906 L -58.080531 -19.769656 L -60.346156 -20.714969 L -62.318813 -21.851688 L -63.951625 -23.160281 L -65.201625 -24.605594 L -66.033656 -26.144656 L -66.424281 -27.742313 L -66.369594 -29.355594 L -65.865688 -30.941531 L -64.928188 -32.461063 L -63.580531 -33.871219 L -61.857875 -35.14075 L -59.803188 -36.2345 L -57.475063 -37.125125 L -54.924281 -37.785281 L -52.228969 -38.20325 L -49.447719 -38.367313 L -46.658656 -38.269656 L -43.936 -37.914188 L -41.34225 -37.312625 L -38.951625 -36.476688 Z M -36.822719 -35.433719 " transform="matrix(1, 0, 0, -1, 218.436, 217.578)"/>
<path fill-rule="nonzero" fill="rgb(54.998779%, 54.998779%, 100%)" fill-opacity="0.25" stroke-width="0.3985" stroke-linecap="butt" stroke-linejoin="miter" stroke="rgb(0%, 0%, 44.999695%)" stroke-opacity="1" stroke-miterlimit="10" d="M -61.3735 -49.605594 L -59.564906 -48.379031 L -58.119594 -46.996219 L -57.076625 -45.500125 L -56.463344 -43.929813 L -56.291469 -42.316531 L -56.572719 -40.714969 L -57.295375 -39.156375 L -58.443813 -37.683719 L -59.982875 -36.339969 L -61.877406 -35.152469 L -64.076625 -34.160281 L -66.521938 -33.382938 L -69.15475 -32.839969 L -71.900844 -32.550906 L -74.693813 -32.51575 L -77.459438 -32.742313 L -80.127406 -33.222781 L -82.627406 -33.945438 L -84.893031 -34.886844 L -86.869594 -36.027469 L -88.502406 -37.336063 L -89.7485 -38.777469 L -90.580531 -40.316531 L -90.975063 -41.914188 L -90.916469 -43.527469 L -90.412563 -45.113406 L -89.475063 -46.632938 L -88.127406 -48.047 L -86.40475 -49.316531 L -84.353969 -50.410281 L -82.021938 -51.297 L -79.475063 -51.961063 L -76.775844 -52.379031 L -73.9985 -52.539188 L -71.209438 -52.441531 L -68.482875 -52.086063 L -65.893031 -51.4845 L -63.502406 -50.652469 Z M -61.3735 -49.605594 " transform="matrix(1, 0, 0, -1, 218.436, 217.578)"/>
<path fill-rule="nonzero" fill="rgb(54.998779%, 54.998779%, 100%)" fill-opacity="0.25" stroke-width="0.3985" stroke-linecap="butt" stroke-linejoin="miter" stroke="rgb(0%, 0%, 44.999695%)" stroke-opacity="1" stroke-miterlimit="10" d="M -85.920375 -63.781375 L -84.111781 -62.550906 L -82.666469 -61.172 L -81.6235 -59.675906 L -81.010219 -58.101688 L -80.84225 -56.492313 L -81.1235 -54.886844 L -81.846156 -53.32825 L -82.990688 -51.8595 L -84.533656 -50.511844 L -86.428188 -49.32825 L -88.6235 -48.332156 L -91.072719 -47.554813 L -93.705531 -47.011844 L -96.451625 -46.722781 L -99.244594 -46.691531 L -102.010219 -46.918094 L -104.678188 -47.398563 L -107.178188 -48.117313 L -109.443813 -49.058719 L -111.416469 -50.199344 L -113.049281 -51.507938 L -114.299281 -52.95325 L -115.131313 -54.492313 L -115.521938 -56.089969 L -115.46725 -57.699344 L -114.963344 -59.289188 L -114.025844 -60.804813 L -112.678188 -62.218875 L -110.955531 -63.488406 L -108.900844 -64.582156 L -106.572719 -65.472781 L -104.025844 -66.132938 L -101.326625 -66.550906 L -98.545375 -66.714969 L -95.756313 -66.617313 L -93.033656 -66.261844 L -90.439906 -65.660281 L -88.049281 -64.824344 Z M -85.920375 -63.781375 " transform="matrix(1, 0, 0, -1, 218.436, 217.578)"/>
<path fill-rule="nonzero" fill="rgb(54.998779%, 54.998779%, 100%)" fill-opacity="0.25" stroke-width="0.3985" stroke-linecap="butt" stroke-linejoin="miter" stroke="rgb(0%, 0%, 44.999695%)" stroke-opacity="1" stroke-miterlimit="10" d="M 21.259312 -26.449344 L 23.067906 -25.218875 L 24.513219 -23.839969 L 25.556187 -22.343875 L 26.173375 -20.769656 L 26.341344 -19.160281 L 26.060094 -17.554813 L 25.337437 -15.996219 L 24.189 -14.527469 L 22.649937 -13.179813 L 20.755406 -11.996219 L 18.556187 -11.000125 L 16.110875 -10.222781 L 13.478062 -9.679813 L 10.731969 -9.39075 L 7.939 -9.3595 L 5.173375 -9.586063 L 2.505406 -10.062625 L 0.00540625 -10.785281 L -2.260219 -11.726688 L -4.236781 -12.867313 L -5.869594 -14.175906 L -7.115688 -15.621219 L -7.947719 -17.160281 L -8.338344 -18.757938 L -8.283656 -20.367313 L -7.77975 -21.95325 L -6.84225 -23.472781 L -5.494594 -24.886844 L -3.771938 -26.156375 L -1.721156 -27.250125 L 0.610875 -28.14075 L 3.15775 -28.800906 L 5.856969 -29.218875 L 8.634312 -29.379031 L 11.423375 -29.285281 L 14.149937 -28.929813 L 16.739781 -28.32825 L 19.130406 -27.492313 Z M 21.259312 -26.449344 " transform="matrix(1, 0, 0, -1, 218.436, 217.578)"/>
<path fill-rule="nonzero" fill="rgb(54.998779%, 54.998779%, 100%)" fill-opacity="0.25" stroke-width="0.3985" stroke-linecap="butt" stroke-linejoin="miter" stroke="rgb(0%, 0%, 44.999695%)" stroke-opacity="1" stroke-miterlimit="10" d="M -3.287563 -40.621219 L -1.478969 -39.39075 L -0.0336563 -38.011844 L 1.009312 -36.51575 L 1.622594 -34.941531 L 1.790562 -33.332156 L 1.509312 -31.726688 L 0.786656 -30.172 L -0.357875 -28.699344 L -1.900844 -27.355594 L -3.795375 -26.168094 L -5.990688 -25.175906 L -8.439906 -24.394656 L -11.068813 -23.855594 L -13.818813 -23.562625 L -16.611781 -23.531375 L -19.377406 -23.757938 L -22.045375 -24.238406 L -24.545375 -24.957156 L -26.811 -25.902469 L -28.783656 -27.043094 L -30.416469 -28.351688 L -31.666469 -29.793094 L -32.4985 -31.332156 L -32.889125 -32.929813 L -32.834438 -34.543094 L -32.330531 -36.129031 L -31.393031 -37.648563 L -30.045375 -39.058719 L -28.322719 -40.32825 L -26.268031 -41.422 L -23.939906 -42.312625 L -21.389125 -42.972781 L -18.693813 -43.39075 L -15.912563 -43.554813 L -13.1235 -43.457156 L -10.400844 -43.101688 L -7.807094 -42.500125 L -5.416469 -41.664188 Z M -3.287563 -40.621219 " transform="matrix(1, 0, 0, -1, 218.436, 217.578)"/>
<path fill-rule="nonzero" fill="rgb(54.998779%, 54.998779%, 100%)" fill-opacity="0.25" stroke-width="0.3985" stroke-linecap="butt" stroke-linejoin="miter" stroke="rgb(0%, 0%, 44.999695%)" stroke-opacity="1" stroke-miterlimit="10" d="M -27.838344 -54.793094 L -26.02975 -53.566531 L -24.584438 -52.183719 L -23.541469 -50.687625 L -22.928188 -49.117313 L -22.756313 -47.507938 L -23.037563 -45.902469 L -23.764125 -44.343875 L -24.908656 -42.871219 L -26.447719 -41.527469 L -28.34225 -40.343875 L -30.541469 -39.347781 L -32.986781 -38.570438 L -35.619594 -38.027469 L -38.369594 -37.738406 L -41.158656 -37.70325 L -43.928188 -37.929813 L -46.59225 -38.410281 L -49.09225 -39.132938 L -51.357875 -40.074344 L -53.334438 -41.214969 L -54.96725 -42.523563 L -56.21725 -43.964969 L -57.045375 -45.504031 L -57.439906 -47.101688 L -57.381313 -48.714969 L -56.881313 -50.300906 L -55.939906 -51.820438 L -54.59225 -53.2345 L -52.869594 -54.504031 L -50.818813 -55.597781 L -48.486781 -56.4845 L -45.939906 -57.148563 L -43.240688 -57.566531 L -40.463344 -57.726688 L -37.674281 -57.629031 L -34.947719 -57.277469 L -32.357875 -56.672 L -29.96725 -55.839969 Z M -27.838344 -54.793094 " transform="matrix(1, 0, 0, -1, 218.436, 217.578)"/>
<path fill-rule="nonzero" fill="rgb(54.998779%, 54.998779%, 100%)" fill-opacity="0.25" stroke-width="0.3985" stroke-linecap="butt" stroke-linejoin="miter" stroke="rgb(0%, 0%, 44.999695%)" stroke-opacity="1" stroke-miterlimit="10" d="M -52.385219 -68.968875 L -50.576625 -67.738406 L -49.131313 -66.3595 L -48.088344 -64.863406 L -47.475063 -63.289188 L -47.307094 -61.679813 L -47.588344 -60.074344 L -48.311 -58.51575 L -49.455531 -57.047 L -50.9985 -55.699344 L -52.893031 -54.51575 L -55.09225 -53.519656 L -57.537563 -52.742313 L -60.170375 -52.199344 L -62.916469 -51.910281 L -65.709438 -51.879031 L -68.475063 -52.105594 L -71.143031 -52.586063 L -73.643031 -53.304813 L -75.908656 -54.246219 L -77.881313 -55.386844 L -79.518031 -56.695438 L -80.764125 -58.14075 L -81.596156 -59.679813 L -81.986781 -61.277469 L -81.932094 -62.89075 L -81.428188 -64.476688 L -80.490688 -65.996219 L -79.143031 -67.406375 L -77.420375 -68.675906 L -75.365688 -69.769656 L -73.037563 -70.660281 L -70.490688 -71.320438 L -67.791469 -71.738406 L -65.010219 -71.902469 L -62.221156 -71.804813 L -59.4985 -71.449344 L -56.90475 -70.847781 L -54.514125 -70.011844 L -52.389125 -68.968875 Z M -52.385219 -68.968875 " transform="matrix(1, 0, 0, -1, 218.436, 217.578)"/>
<path fill-rule="nonzero" fill="rgb(54.998779%, 54.998779%, 100%)" fill-opacity="0.25" stroke-width="0.3985" stroke-linecap="butt" stroke-linejoin="miter" stroke="rgb(0%, 0%, 44.999695%)" stroke-opacity="1" stroke-miterlimit="10" d="M -76.936 -83.14075 L -75.127406 -81.914188 L -73.682094 -80.531375 L -72.639125 -79.035281 L -72.025844 -77.461063 L -71.857875 -75.851688 L -72.139125 -74.250125 L -72.861781 -72.691531 L -74.006313 -71.218875 L -75.545375 -69.875125 L -77.439906 -68.687625 L -79.639125 -67.695438 L -82.088344 -66.918094 L -84.71725 -66.375125 L -87.46725 -66.082156 L -90.260219 -66.050906 L -93.025844 -66.277469 L -95.693813 -66.757938 L -98.189906 -67.476688 L -100.455531 -68.422 L -102.432094 -69.562625 L -104.064906 -70.871219 L -105.314906 -72.312625 L -106.143031 -73.851688 L -106.537563 -75.449344 L -106.478969 -77.062625 L -105.978969 -78.648563 L -105.037563 -80.168094 L -103.689906 -81.582156 L -101.96725 -82.851688 L -99.916469 -83.945438 L -97.584438 -84.832156 L -95.037563 -85.496219 L -92.338344 -85.910281 L -89.561 -86.074344 L -86.771938 -85.976688 L -84.045375 -85.621219 L -81.455531 -85.019656 L -79.064906 -84.187625 Z M -76.936 -83.14075 " transform="matrix(1, 0, 0, -1, 218.436, 217.578)"/>
<path fill-rule="nonzero" fill="rgb(54.998779%, 54.998779%, 100%)" fill-opacity="0.25" stroke-width="0.3985" stroke-linecap="butt" stroke-linejoin="miter" stroke="rgb(0%, 0%, 44.999695%)" stroke-opacity="1" stroke-miterlimit="10" d="M 54.794469 -31.636844 L 56.603062 -30.406375 L 58.048375 -29.027469 L 59.091344 -27.531375 L 59.704625 -25.957156 L 59.8765 -24.347781 L 59.59525 -22.742313 L 58.868687 -21.183719 L 57.724156 -19.714969 L 56.185094 -18.367313 L 54.290562 -17.183719 L 52.091344 -16.187625 L 49.646031 -15.410281 L 47.013219 -14.867313 L 44.267125 -14.57825 L 41.474156 -14.547 L 38.708531 -14.773563 L 36.040562 -15.254031 L 33.540562 -15.972781 L 31.274937 -16.914188 L 29.298375 -18.054813 L 27.665562 -19.363406 L 26.419469 -20.808719 L 25.587437 -22.347781 L 25.192906 -23.945438 L 25.2515 -25.554813 L 25.7515 -27.144656 L 26.692906 -28.660281 L 28.040562 -30.074344 L 29.763219 -31.343875 L 31.814 -32.437625 L 34.146031 -33.32825 L 36.692906 -33.988406 L 39.392125 -34.406375 L 42.169469 -34.570438 L 44.958531 -34.472781 L 47.685094 -34.117313 L 50.274937 -33.51575 L 52.665562 -32.679813 Z M 54.794469 -31.636844 " transform="matrix(1, 0, 0, -1, 218.436, 217.578)"/>
<path fill-rule="nonzero" fill="rgb(54.998779%, 54.998779%, 100%)" fill-opacity="0.25" stroke-width="0.3985" stroke-linecap="butt" stroke-linejoin="miter" stroke="rgb(0%, 0%, 44.999695%)" stroke-opacity="1" stroke-miterlimit="10" d="M 30.247594 -45.808719 L 32.056187 -44.582156 L 33.5015 -43.199344 L 34.544469 -41.70325 L 35.15775 -40.129031 L 35.325719 -38.519656 L 35.044469 -36.914188 L 34.321812 -35.3595 L 33.177281 -33.886844 L 31.634312 -32.543094 L 29.739781 -31.355594 L 27.540562 -30.363406 L 25.09525 -29.582156 L 22.462437 -29.043094 L 19.716344 -28.750125 L 16.923375 -28.718875 L 14.15775 -28.945438 L 11.489781 -29.425906 L 8.989781 -30.144656 L 6.724156 -31.089969 L 4.7515 -32.230594 L 3.114781 -33.539188 L 1.868687 -34.980594 L 1.036656 -36.519656 L 0.646031 -38.117313 L 0.700719 -39.730594 L 1.204625 -41.316531 L 2.142125 -42.836063 L 3.489781 -44.246219 L 5.212437 -45.519656 L 7.267125 -46.6095 L 9.59525 -47.500125 L 12.142125 -48.164188 L 14.841344 -48.57825 L 17.622594 -48.742313 L 20.411656 -48.644656 L 23.134312 -48.289188 L 25.728062 -47.687625 L 28.118687 -46.855594 L 30.243687 -45.808719 Z M 30.247594 -45.808719 " transform="matrix(1, 0, 0, -1, 218.436, 217.578)"/>
<path fill-rule="nonzero" fill="rgb(54.998779%, 54.998779%, 100%)" fill-opacity="0.25" stroke-width="0.3985" stroke-linecap="butt" stroke-linejoin="miter" stroke="rgb(0%, 0%, 44.999695%)" stroke-opacity="1" stroke-miterlimit="10" d="M 5.696812 -59.9845 L 7.505406 -58.754031 L 8.950719 -57.375125 L 9.993687 -55.879031 L 10.606969 -54.304813 L 10.774937 -52.695438 L 10.493687 -51.089969 L 9.771031 -49.531375 L 8.6265 -48.062625 L 7.087437 -46.714969 L 5.192906 -45.531375 L 2.993687 -44.535281 L 0.544469 -43.757938 L -2.084438 -43.214969 L -4.834438 -42.925906 L -7.627406 -42.894656 L -10.393031 -43.121219 L -13.057094 -43.597781 L -15.557094 -44.320438 L -17.822719 -45.261844 L -19.799281 -46.402469 L -21.432094 -47.711063 L -22.682094 -49.152469 L -23.510219 -50.695438 L -23.90475 -52.289188 L -23.846156 -53.902469 L -23.346156 -55.488406 L -22.40475 -57.007938 L -21.057094 -58.422 L -19.334438 -59.691531 L -17.283656 -60.785281 L -14.951625 -61.672 L -12.40475 -62.336063 L -9.705531 -62.754031 L -6.928188 -62.914188 L -4.139125 -62.816531 L -1.412563 -62.464969 L 1.177281 -61.863406 L 3.567906 -61.027469 L 5.696812 -59.980594 Z M 5.696812 -59.9845 " transform="matrix(1, 0, 0, -1, 218.436, 217.578)"/>
<path fill-rule="nonzero" fill="rgb(54.998779%, 54.998779%, 100%)" fill-opacity="0.25" stroke-width="0.3985" stroke-linecap="butt" stroke-linejoin="miter" stroke="rgb(0%, 0%, 44.999695%)" stroke-opacity="1" stroke-miterlimit="10" d="M -18.853969 -74.156375 L -17.041469 -72.925906 L -15.596156 -71.547 L -14.553188 -70.050906 L -13.939906 -68.476688 L -13.771938 -66.867313 L -14.053188 -65.261844 L -14.775844 -63.70325 L -15.924281 -62.2345 L -17.463344 -60.886844 L -19.357875 -59.70325 L -21.557094 -58.707156 L -24.002406 -57.929813 L -26.635219 -57.39075 L -29.381313 -57.097781 L -32.174281 -57.066531 L -34.939906 -57.293094 L -37.607875 -57.773563 L -40.107875 -58.492313 L -42.3735 -59.437625 L -44.350063 -60.574344 L -45.982875 -61.882938 L -47.228969 -63.32825 L -48.061 -64.867313 L -48.451625 -66.464969 L -48.396938 -68.07825 L -47.893031 -69.664188 L -46.955531 -71.183719 L -45.607875 -72.593875 L -43.885219 -73.863406 L -41.830531 -74.957156 L -39.502406 -75.847781 L -36.955531 -76.507938 L -34.256313 -76.925906 L -31.475063 -77.089969 L -28.686 -76.992313 L -25.963344 -76.636844 L -23.369594 -76.035281 L -20.978969 -75.199344 Z M -18.853969 -74.156375 " transform="matrix(1, 0, 0, -1, 218.436, 217.578)"/>
<path fill-rule="nonzero" fill="rgb(54.998779%, 54.998779%, 100%)" fill-opacity="0.25" stroke-width="0.3985" stroke-linecap="butt" stroke-linejoin="miter" stroke="rgb(0%, 0%, 44.999695%)" stroke-opacity="1" stroke-miterlimit="10" d="M -43.400844 -88.32825 L -41.59225 -87.101688 L -40.146938 -85.718875 L -39.103969 -84.222781 L -38.490688 -82.652469 L -38.322719 -81.039188 L -38.603969 -79.437625 L -39.326625 -77.879031 L -40.471156 -76.406375 L -42.010219 -75.062625 L -43.90475 -73.875125 L -46.103969 -72.882938 L -48.553188 -72.105594 L -51.182094 -71.562625 L -53.932094 -71.273563 L -56.725063 -71.238406 L -59.490688 -71.464969 L -62.158656 -71.945438 L -64.65475 -72.668094 L -66.924281 -73.6095 L -68.896938 -74.750125 L -70.52975 -76.058719 L -71.77975 -77.500125 L -72.607875 -79.039188 L -73.002406 -80.636844 L -72.947719 -82.250125 L -72.443813 -83.836063 L -71.506313 -85.355594 L -70.158656 -86.769656 L -68.436 -88.039188 L -66.381313 -89.132938 L -64.049281 -90.019656 L -61.502406 -90.683719 L -58.803188 -91.101688 L -56.025844 -91.261844 L -53.236781 -91.164188 L -50.510219 -90.808719 L -47.920375 -90.207156 L -45.52975 -89.375125 Z M -43.400844 -88.32825 " transform="matrix(1, 0, 0, -1, 218.436, 217.578)"/>
<path fill-rule="nonzero" fill="rgb(54.998779%, 54.998779%, 100%)" fill-opacity="0.25" stroke-width="0.3985" stroke-linecap="butt" stroke-linejoin="miter" stroke="rgb(0%, 0%, 44.999695%)" stroke-opacity="1" stroke-miterlimit="10" d="M 63.778844 -50.996219 L 65.591344 -49.769656 L 67.036656 -48.386844 L 68.079625 -46.89075 L 68.692906 -45.316531 L 68.860875 -43.707156 L 68.579625 -42.105594 L 67.856969 -40.547 L 66.708531 -39.074344 L 65.169469 -37.730594 L 63.274937 -36.543094 L 61.075719 -35.550906 L 58.630406 -34.773563 L 55.997594 -34.230594 L 53.2515 -33.937625 L 50.458531 -33.906375 L 47.692906 -34.132938 L 45.024937 -34.613406 L 42.524937 -35.332156 L 40.259312 -36.277469 L 38.28275 -37.418094 L 36.649937 -38.726688 L 35.403844 -40.168094 L 34.571812 -41.707156 L 34.181187 -43.304813 L 34.235875 -44.918094 L 34.739781 -46.504031 L 35.677281 -48.023563 L 37.024937 -49.437625 L 38.747594 -50.707156 L 40.802281 -51.800906 L 43.130406 -52.687625 L 45.677281 -53.351688 L 48.3765 -53.76575 L 51.15775 -53.929813 L 53.946812 -53.832156 L 56.669469 -53.476688 L 59.263219 -52.875125 L 61.653844 -52.043094 Z M 63.778844 -50.996219 " transform="matrix(1, 0, 0, -1, 218.436, 217.578)"/>
<path fill-rule="nonzero" fill="rgb(54.998779%, 54.998779%, 100%)" fill-opacity="0.25" stroke-width="0.3985" stroke-linecap="butt" stroke-linejoin="miter" stroke="rgb(0%, 0%, 44.999695%)" stroke-opacity="1" stroke-miterlimit="10" d="M 39.231969 -65.172 L 41.040562 -63.941531 L 42.485875 -62.562625 L 43.528844 -61.066531 L 44.142125 -59.492313 L 44.310094 -57.882938 L 44.028844 -56.277469 L 43.306187 -54.718875 L 42.161656 -53.250125 L 40.622594 -51.902469 L 38.728062 -50.718875 L 36.528844 -49.722781 L 34.079625 -48.945438 L 31.450719 -48.402469 L 28.700719 -48.113406 L 25.90775 -48.082156 L 23.142125 -48.308719 L 20.474156 -48.785281 L 17.978062 -49.507938 L 15.708531 -50.449344 L 13.735875 -51.589969 L 12.103062 -52.898563 L 10.853062 -54.339969 L 10.024937 -55.882938 L 9.630406 -57.480594 L 9.685094 -59.089969 L 10.189 -60.675906 L 11.1265 -62.195438 L 12.474156 -63.6095 L 14.200719 -64.879031 L 16.2515 -65.972781 L 18.583531 -66.863406 L 21.130406 -67.523563 L 23.829625 -67.941531 L 26.606969 -68.101688 L 29.396031 -68.004031 L 32.122594 -67.652469 L 34.712437 -67.050906 L 37.103062 -66.214969 Z M 39.231969 -65.172 " transform="matrix(1, 0, 0, -1, 218.436, 217.578)"/>
<path fill-rule="nonzero" fill="rgb(54.998779%, 54.998779%, 100%)" fill-opacity="0.25" stroke-width="0.3985" stroke-linecap="butt" stroke-linejoin="miter" stroke="rgb(0%, 0%, 44.999695%)" stroke-opacity="1" stroke-miterlimit="10" d="M 14.681187 -79.343875 L 16.489781 -78.113406 L 17.935094 -76.7345 L 18.978062 -75.238406 L 19.59525 -73.664188 L 19.763219 -72.054813 L 19.481969 -70.449344 L 18.759312 -68.894656 L 17.610875 -67.422 L 16.071812 -66.07825 L 14.177281 -64.89075 L 11.978062 -63.898563 L 9.53275 -63.117313 L 6.899937 -62.57825 L 4.153844 -62.285281 L 1.360875 -62.254031 L -1.40475 -62.480594 L -4.072719 -62.961063 L -6.572719 -63.679813 L -8.838344 -64.625125 L -10.814906 -65.76575 L -12.447719 -67.070438 L -13.693813 -68.51575 L -14.525844 -70.054813 L -14.916469 -71.652469 L -14.861781 -73.26575 L -14.357875 -74.851688 L -13.420375 -76.371219 L -12.072719 -77.781375 L -10.350063 -79.050906 L -8.299281 -80.144656 L -5.96725 -81.035281 L -3.420375 -81.695438 L -0.721156 -82.113406 L 2.056187 -82.277469 L 4.84525 -82.179813 L 7.571812 -81.824344 L 10.161656 -81.222781 L 12.552281 -80.386844 Z M 14.681187 -79.343875 " transform="matrix(1, 0, 0, -1, 218.436, 217.578)"/>
<path fill-rule="nonzero" fill="rgb(54.998779%, 54.998779%, 100%)" fill-opacity="0.25" stroke-width="0.3985" stroke-linecap="butt" stroke-linejoin="miter" stroke="rgb(0%, 0%, 44.999695%)" stroke-opacity="1" stroke-miterlimit="10" d="M -9.865688 -93.51575 L -8.057094 -92.289188 L -6.611781 -90.906375 L -5.568813 -89.410281 L -4.955531 -87.839969 L -4.787563 -86.230594 L -5.068813 -84.625125 L -5.791469 -83.066531 L -6.936 -81.593875 L -8.478969 -80.250125 L -10.369594 -79.066531 L -12.568813 -78.070438 L -15.018031 -77.293094 L -17.646938 -76.750125 L -20.396938 -76.461063 L -23.189906 -76.425906 L -25.955531 -76.652469 L -28.6235 -77.132938 L -31.1235 -77.855594 L -33.389125 -78.797 L -35.361781 -79.937625 L -36.994594 -81.246219 L -38.244594 -82.687625 L -39.076625 -84.226688 L -39.46725 -85.824344 L -39.412563 -87.437625 L -38.908656 -89.023563 L -37.971156 -90.543094 L -36.6235 -91.957156 L -34.900844 -93.226688 L -32.846156 -94.320438 L -30.518031 -95.207156 L -27.96725 -95.871219 L -25.271938 -96.289188 L -22.490688 -96.449344 L -19.701625 -96.351688 L -16.978969 -96.000125 L -14.385219 -95.394656 L -11.994594 -94.562625 Z M -9.865688 -93.51575 " transform="matrix(1, 0, 0, -1, 218.436, 217.578)"/>
<path fill-rule="nonzero" fill="rgb(54.998779%, 54.998779%, 100%)" fill-opacity="0.25" stroke-width="0.3985" stroke-linecap="butt" stroke-linejoin="miter" stroke="rgb(0%, 0%, 44.999695%)" stroke-opacity="1" stroke-miterlimit="10" d="M -34.416469 -107.691531 L -32.607875 -106.461063 L -31.162563 -105.082156 L -30.119594 -103.586063 L -29.506313 -102.011844 L -29.334438 -100.402469 L -29.615688 -98.797 L -30.338344 -97.238406 L -31.486781 -95.769656 L -33.025844 -94.422 L -34.920375 -93.238406 L -37.119594 -92.242313 L -39.564906 -91.464969 L -42.197719 -90.922 L -44.943813 -90.632938 L -47.736781 -90.601688 L -50.502406 -90.82825 L -53.170375 -91.308719 L -55.670375 -92.027469 L -57.936 -92.968875 L -59.912563 -94.1095 L -61.545375 -95.418094 L -62.791469 -96.863406 L -63.6235 -98.402469 L -64.018031 -100.000125 L -63.959438 -101.6095 L -63.455531 -103.199344 L -62.518031 -104.718875 L -61.170375 -106.129031 L -59.447719 -107.398563 L -57.396938 -108.492313 L -55.064906 -109.382938 L -52.518031 -110.043094 L -49.818813 -110.461063 L -47.041469 -110.625125 L -44.252406 -110.527469 L -41.525844 -110.172 L -38.936 -109.570438 L -36.545375 -108.7345 Z M -34.416469 -107.691531 " transform="matrix(1, 0, 0, -1, 218.436, 217.578)"/>
<path fill-rule="nonzero" fill="rgb(54.998779%, 54.998779%, 100%)" fill-opacity="0.25" stroke-width="0.3985" stroke-linecap="butt" stroke-linejoin="miter" stroke="rgb(0%, 0%, 44.999695%)" stroke-opacity="1" stroke-miterlimit="10" d="M 97.314 -56.183719 L 99.1265 -54.957156 L 100.567906 -53.574344 L 101.610875 -52.07825 L 102.228062 -50.507938 L 102.396031 -48.894656 L 102.114781 -47.293094 L 101.392125 -45.7345 L 100.243687 -44.261844 L 98.704625 -42.918094 L 96.810094 -41.730594 L 94.610875 -40.738406 L 92.165562 -39.961063 L 89.53275 -39.418094 L 86.786656 -39.129031 L 83.993687 -39.093875 L 81.228062 -39.320438 L 78.560094 -39.800906 L 76.060094 -40.523563 L 73.794469 -41.464969 L 71.817906 -42.605594 L 70.185094 -43.914188 L 68.939 -45.355594 L 68.106969 -46.894656 L 67.716344 -48.492313 L 67.771031 -50.105594 L 68.274937 -51.691531 L 69.212437 -53.211063 L 70.560094 -54.625125 L 72.28275 -55.894656 L 74.333531 -56.988406 L 76.665562 -57.875125 L 79.212437 -58.539188 L 81.911656 -58.957156 L 84.692906 -59.117313 L 87.478062 -59.019656 L 90.204625 -58.664188 L 92.794469 -58.062625 L 95.185094 -57.230594 Z M 97.314 -56.183719 " transform="matrix(1, 0, 0, -1, 218.436, 217.578)"/>
<path fill-rule="nonzero" fill="rgb(54.998779%, 54.998779%, 100%)" fill-opacity="0.25" stroke-width="0.3985" stroke-linecap="butt" stroke-linejoin="miter" stroke="rgb(0%, 0%, 44.999695%)" stroke-opacity="1" stroke-miterlimit="10" d="M 72.767125 -70.3595 L 74.575719 -69.129031 L 76.021031 -67.750125 L 77.064 -66.254031 L 77.677281 -64.679813 L 77.84525 -63.070438 L 77.564 -61.464969 L 76.841344 -59.906375 L 75.696812 -58.437625 L 74.153844 -57.089969 L 72.263219 -55.906375 L 70.064 -54.910281 L 67.614781 -54.132938 L 64.985875 -53.589969 L 62.235875 -53.300906 L 59.442906 -53.269656 L 56.677281 -53.496219 L 54.009312 -53.972781 L 51.513219 -54.695438 L 49.243687 -55.636844 L 47.271031 -56.777469 L 45.638219 -58.086063 L 44.388219 -59.531375 L 43.556187 -61.070438 L 43.165562 -62.668094 L 43.22025 -64.277469 L 43.724156 -65.863406 L 44.661656 -67.382938 L 46.009312 -68.797 L 47.731969 -70.066531 L 49.786656 -71.160281 L 52.114781 -72.050906 L 54.665562 -72.711063 L 57.360875 -73.129031 L 60.142125 -73.293094 L 62.931187 -73.195438 L 65.65775 -72.839969 L 68.247594 -72.238406 L 70.638219 -71.402469 Z M 72.767125 -70.3595 " transform="matrix(1, 0, 0, -1, 218.436, 217.578)"/>
<path fill-rule="nonzero" fill="rgb(54.998779%, 54.998779%, 100%)" fill-opacity="0.25" stroke-width="0.3985" stroke-linecap="butt" stroke-linejoin="miter" stroke="rgb(0%, 0%, 44.999695%)" stroke-opacity="1" stroke-miterlimit="10" d="M 48.216344 -84.531375 L 50.024937 -83.304813 L 51.47025 -81.922 L 52.513219 -80.425906 L 53.1265 -78.851688 L 53.298375 -77.242313 L 53.017125 -75.636844 L 52.294469 -74.082156 L 51.146031 -72.6095 L 49.606969 -71.26575 L 47.712437 -70.07825 L 45.513219 -69.086063 L 43.067906 -68.304813 L 40.435094 -67.76575 L 37.689 -67.472781 L 34.896031 -67.441531 L 32.130406 -67.668094 L 29.462437 -68.148563 L 26.962437 -68.867313 L 24.696812 -69.812625 L 22.72025 -70.95325 L 21.087437 -72.261844 L 19.841344 -73.70325 L 19.009312 -75.242313 L 18.614781 -76.839969 L 18.673375 -78.45325 L 19.177281 -80.039188 L 20.114781 -81.558719 L 21.462437 -82.968875 L 23.185094 -84.242313 L 25.235875 -85.332156 L 27.567906 -86.222781 L 30.114781 -86.886844 L 32.814 -87.300906 L 35.591344 -87.464969 L 38.380406 -87.367313 L 41.106969 -87.011844 L 43.696812 -86.410281 L 46.087437 -85.574344 Z M 48.216344 -84.531375 " transform="matrix(1, 0, 0, -1, 218.436, 217.578)"/>
<path fill-rule="nonzero" fill="rgb(54.998779%, 54.998779%, 100%)" fill-opacity="0.25" stroke-width="0.3985" stroke-linecap="butt" stroke-linejoin="miter" stroke="rgb(0%, 0%, 44.999695%)" stroke-opacity="1" stroke-miterlimit="10" d="M 23.669469 -98.70325 L 25.478062 -97.476688 L 26.923375 -96.097781 L 27.966344 -94.601688 L 28.579625 -93.027469 L 28.747594 -91.418094 L 28.466344 -89.812625 L 27.743687 -88.254031 L 26.599156 -86.781375 L 25.056187 -85.437625 L 23.161656 -84.254031 L 20.966344 -83.257938 L 18.517125 -82.480594 L 15.888219 -81.937625 L 13.138219 -81.648563 L 10.34525 -81.613406 L 7.579625 -81.843875 L 4.911656 -82.320438 L 2.411656 -83.043094 L 0.146031 -83.9845 L -1.826625 -85.125125 L -3.459438 -86.433719 L -4.709438 -87.875125 L -5.541469 -89.418094 L -5.932094 -91.011844 L -5.877406 -92.625125 L -5.3735 -94.211063 L -4.436 -95.730594 L -3.088344 -97.144656 L -1.365688 -98.414188 L 0.689 -99.507938 L 3.017125 -100.394656 L 5.567906 -101.058719 L 8.263219 -101.476688 L 11.044469 -101.636844 L 13.833531 -101.539188 L 16.556187 -101.187625 L 19.149937 -100.582156 L 21.540562 -99.750125 Z M 23.669469 -98.70325 " transform="matrix(1, 0, 0, -1, 218.436, 217.578)"/>
<path fill-rule="nonzero" fill="rgb(54.998779%, 54.998779%, 100%)" fill-opacity="0.25" stroke-width="0.3985" stroke-linecap="butt" stroke-linejoin="miter" stroke="rgb(0%, 0%, 44.999695%)" stroke-opacity="1" stroke-miterlimit="10" d="M 106.302281 -75.547 L 108.110875 -74.316531 L 109.556187 -72.937625 L 110.599156 -71.441531 L 111.212437 -69.867313 L 111.380406 -68.257938 L 111.099156 -66.652469 L 110.3765 -65.093875 L 109.231969 -63.625125 L 107.689 -62.277469 L 105.798375 -61.093875 L 103.599156 -60.097781 L 101.149937 -59.320438 L 98.521031 -58.777469 L 95.771031 -58.488406 L 92.978062 -58.457156 L 90.212437 -58.683719 L 87.544469 -59.164188 L 85.044469 -59.882938 L 82.778844 -60.824344 L 80.806187 -61.964969 L 79.173375 -63.273563 L 77.923375 -64.718875 L 77.091344 -66.257938 L 76.700719 -67.855594 L 76.755406 -69.464969 L 77.259312 -71.054813 L 78.196812 -72.574344 L 79.544469 -73.9845 L 81.267125 -75.254031 L 83.321812 -76.347781 L 85.649937 -77.238406 L 88.200719 -77.898563 L 90.896031 -78.316531 L 93.677281 -78.480594 L 96.466344 -78.382938 L 99.189 -78.027469 L 101.78275 -77.425906 L 104.173375 -76.589969 Z M 106.302281 -75.547 " transform="matrix(1, 0, 0, -1, 218.436, 217.578)"/>
<path fill-rule="nonzero" fill="rgb(54.998779%, 54.998779%, 100%)" fill-opacity="0.25" stroke-width="0.3985" stroke-linecap="butt" stroke-linejoin="miter" stroke="rgb(0%, 0%, 44.999695%)" stroke-opacity="1" stroke-miterlimit="10" d="M 81.7515 -89.718875 L 83.560094 -88.492313 L 85.005406 -87.1095 L 86.048375 -85.613406 L 86.661656 -84.039188 L 86.833531 -82.429813 L 86.552281 -80.82825 L 85.825719 -79.269656 L 84.681187 -77.797 L 83.142125 -76.45325 L 81.247594 -75.26575 L 79.048375 -74.273563 L 76.603062 -73.492313 L 73.97025 -72.95325 L 71.224156 -72.660281 L 68.431187 -72.629031 L 65.665562 -72.855594 L 62.997594 -73.336063 L 60.497594 -74.054813 L 58.231969 -75.000125 L 56.255406 -76.14075 L 54.622594 -77.449344 L 53.372594 -78.89075 L 52.544469 -80.429813 L 52.149937 -82.027469 L 52.208531 -83.64075 L 52.708531 -85.226688 L 53.649937 -86.746219 L 54.997594 -88.160281 L 56.72025 -89.429813 L 58.771031 -90.523563 L 61.103062 -91.410281 L 63.649937 -92.074344 L 66.349156 -92.488406 L 69.1265 -92.652469 L 71.915562 -92.554813 L 74.642125 -92.199344 L 77.231969 -91.597781 L 79.622594 -90.76575 Z M 81.7515 -89.718875 " transform="matrix(1, 0, 0, -1, 218.436, 217.578)"/>
<path fill-rule="nonzero" fill="rgb(54.998779%, 54.998779%, 100%)" fill-opacity="0.25" stroke-width="0.3985" stroke-linecap="butt" stroke-linejoin="miter" stroke="rgb(0%, 0%, 44.999695%)" stroke-opacity="1" stroke-miterlimit="10" d="M 57.204625 -103.894656 L 59.013219 -102.664188 L 60.458531 -101.285281 L 61.5015 -99.789188 L 62.114781 -98.214969 L 62.28275 -96.605594 L 62.0015 -95.000125 L 61.278844 -93.441531 L 60.134312 -91.972781 L 58.591344 -90.625125 L 56.696812 -89.441531 L 54.497594 -88.445438 L 52.052281 -87.668094 L 49.419469 -87.125125 L 46.673375 -86.836063 L 43.880406 -86.804813 L 41.114781 -87.031375 L 38.446812 -87.507938 L 35.946812 -88.230594 L 33.681187 -89.172 L 31.708531 -90.312625 L 30.071812 -91.621219 L 28.825719 -93.062625 L 27.993687 -94.605594 L 27.603062 -96.20325 L 27.65775 -97.812625 L 28.161656 -99.398563 L 29.099156 -100.918094 L 30.446812 -102.332156 L 32.169469 -103.601688 L 34.224156 -104.695438 L 36.552281 -105.586063 L 39.099156 -106.246219 L 41.798375 -106.664188 L 44.579625 -106.824344 L 47.368687 -106.726688 L 50.091344 -106.375125 L 52.685094 -105.773563 L 55.075719 -104.937625 L 57.200719 -103.894656 Z M 57.204625 -103.894656 " transform="matrix(1, 0, 0, -1, 218.436, 217.578)"/>
<path fill="none" stroke-width="0.3985" stroke-linecap="butt" stroke-linejoin="miter" stroke="rgb(0%, 0%, 0%)" stroke-opacity="1" stroke-miterlimit="10" d="M 0.0015 -0.000125 L 0.0015 170.081906 " transform="matrix(1, 0, 0, -1, 218.436, 217.578)"/>
<path fill="none" stroke-width="0.3985" stroke-linecap="butt" stroke-linejoin="miter" stroke="rgb(0%, 0%, 0%)" stroke-opacity="1" stroke-dasharray="0.3985 1.99255" stroke-miterlimit="10" d="M -147.295375 85.038937 L -147.080531 93.964719 L -146.455531 102.632687 L -145.416469 111.003781 L -143.963344 119.066281 L -142.100063 126.788937 L -139.834438 134.148312 L -137.174281 141.128781 L -134.1235 147.710812 L -130.693813 153.874875 L -126.893031 159.601437 L -122.736781 164.874875 L -118.232875 169.687375 L -113.385219 174.011594 L -108.225063 177.847531 L -102.752406 181.17175 L -96.990688 183.992062 L -90.951625 186.285031 L -84.658656 188.054562 L -78.127406 189.285031 L -71.369594 189.98425 L -64.408656 190.136594 L -57.268031 189.753781 L -49.963344 188.839719 L -42.518031 187.378781 L -34.951625 185.394406 L -27.291469 182.882687 L -19.549281 179.855344 L -11.7485 176.312375 L -3.916469 172.273312 L 3.919469 167.745969 L 11.7515 162.745969 L 19.548375 157.281125 L 27.286656 151.374875 L 34.950719 145.038937 L 42.517125 138.285031 L 49.966344 131.144406 L 57.267125 123.628781 L 64.411656 115.761594 L 71.368687 107.570187 L 78.122594 99.074094 L 84.661656 90.292844 L 90.954625 81.257687 L 96.993687 71.995969 L 102.7515 62.527219 L 108.22025 52.882687 L 113.384312 43.085812 L 118.228062 33.167844 L 122.735875 23.152219 L 126.892125 13.078 L 130.692906 2.960812 L 134.122594 -7.164188 L 137.173375 -17.26575 L 139.833531 -27.320438 L 142.099156 -37.297 L 143.958531 -47.164188 L 145.411656 -56.902469 L 146.454625 -66.480594 L 147.079625 -75.867313 L 147.290562 -85.039188 " transform="matrix(1, 0, 0, -1, 218.436, 217.578)"/>
<path fill="none" stroke-width="0.3985" stroke-linecap="butt" stroke-linejoin="miter" stroke="rgb(0%, 0%, 0%)" stroke-opacity="1" stroke-dasharray="0.3985 1.99255" stroke-miterlimit="10" d="M -201.209438 31.128781 L -200.916469 40.132687 L -200.064906 49.027219 L -198.643031 57.781125 L -196.65475 66.370969 L -194.111781 74.777219 L -191.018031 82.964719 L -187.381313 90.92175 L -183.21725 98.617062 L -178.533656 106.035031 L -173.338344 113.156125 L -167.658656 119.953 L -161.506313 126.413937 L -154.889125 132.507687 L -147.834438 138.23425 L -140.361781 143.562375 L -132.494594 148.492062 L -124.244594 152.995969 L -115.646938 157.066281 L -106.721156 160.691281 L -97.494594 163.85925 L -87.986781 166.562375 L -78.228969 168.792844 L -68.252406 170.550656 L -58.080531 171.816281 L -47.744594 172.601437 L -37.27975 172.894406 L -26.705531 172.699094 L -16.049281 172.011594 L -5.350063 170.839719 L 5.353062 169.183469 L 16.052281 167.04675 L 26.700719 164.437375 L 37.274937 161.35925 L 47.743687 157.831906 L 58.083531 153.847531 L 68.2515 149.433469 L 78.228062 144.589719 L 87.985875 139.339719 L 97.493687 133.695187 L 106.72025 127.67175 L 115.649937 121.281125 L 124.243687 114.550656 L 132.493687 107.495969 L 140.360875 100.136594 L 147.833531 92.492062 L 154.884312 84.585812 L 161.5015 76.441281 L 167.661656 68.078 L 173.341344 59.523312 L 178.53275 50.79675 L 183.216344 41.929562 L 187.384312 32.945187 L 191.017125 23.863156 L 194.110875 14.714719 L 196.653844 5.527219 L 198.638219 -3.675906 L 200.064 -12.875125 L 200.915562 -22.031375 L 201.204625 -31.125125 " transform="matrix(1, 0, 0, -1, 218.436, 217.578)"/>
<path fill="none" stroke-width="0.3985" stroke-linecap="butt" stroke-linejoin="miter" stroke="rgb(0%, 0%, 0%)" stroke-opacity="1" stroke-dasharray="0.3985 1.99255" stroke-miterlimit="10" d="M -201.209438 -31.129031 L -200.916469 -22.031375 L -200.064906 -12.875125 L -198.643031 -3.679813 L -196.65475 5.527219 L -194.111781 14.718625 L -191.018031 23.863156 L -187.381313 32.945187 L -183.21725 41.929562 L -178.533656 50.79675 L -173.338344 59.523312 L -167.658656 68.078 L -161.506313 76.441281 L -154.889125 84.585812 L -147.834438 92.492062 L -140.361781 100.136594 L -132.494594 107.495969 L -124.244594 114.554562 L -115.646938 121.285031 L -106.721156 127.67175 L -97.494594 133.695187 L -87.986781 139.339719 L -78.228969 144.589719 L -68.252406 149.433469 L -58.080531 153.843625 L -47.744594 157.828 L -37.27975 161.35925 L -26.705531 164.437375 L -16.049281 167.04675 L -5.350063 169.183469 L 5.353062 170.839719 L 16.052281 172.011594 L 26.700719 172.699094 L 37.274937 172.894406 L 47.743687 172.605344 L 58.083531 171.816281 L 68.2515 170.550656 L 78.228062 168.792844 L 87.985875 166.562375 L 97.493687 163.85925 L 106.72025 160.691281 L 115.649937 157.062375 L 124.243687 152.992062 L 132.493687 148.492062 L 140.360875 143.566281 L 147.833531 138.23425 L 154.884312 132.507687 L 161.5015 126.410031 L 167.661656 119.953 L 173.341344 113.156125 L 178.53275 106.035031 L 183.216344 98.617062 L 187.384312 90.92175 L 191.017125 82.964719 L 194.110875 74.773312 L 196.653844 66.370969 L 198.638219 57.781125 L 200.064 49.027219 L 200.915562 40.132687 L 201.204625 31.124875 " transform="matrix(1, 0, 0, -1, 218.436, 217.578)"/>
<path fill="none" stroke-width="0.3985" stroke-linecap="butt" stroke-linejoin="miter" stroke="rgb(0%, 0%, 0%)" stroke-opacity="1" stroke-dasharray="0.3985 1.99255" stroke-miterlimit="10" d="M -147.295375 -85.039188 L -147.080531 -75.867313 L -146.455531 -66.480594 L -145.416469 -56.906375 L -143.963344 -47.168094 L -142.100063 -37.293094 L -139.834438 -27.320438 L -137.174281 -17.26575 L -134.1235 -7.164188 L -130.693813 2.960812 L -126.893031 13.078 L -122.736781 23.152219 L -118.232875 33.163937 L -113.385219 43.085812 L -108.225063 52.878781 L -102.752406 62.527219 L -96.990688 71.995969 L -90.951625 81.261594 L -84.658656 90.29675 L -78.127406 99.074094 L -71.369594 107.570187 L -64.408656 115.761594 L -57.268031 123.628781 L -49.963344 131.144406 L -42.518031 138.281125 L -34.951625 145.035031 L -27.291469 151.370969 L -19.549281 157.281125 L -11.7485 162.745969 L -3.916469 167.749875 L 3.919469 172.273312 L 11.7515 176.312375 L 19.548375 179.851437 L 27.286656 182.882687 L 34.950719 185.398312 L 42.517125 187.378781 L 49.966344 188.839719 L 57.267125 189.753781 L 64.411656 190.136594 L 71.368687 189.98425 L 78.122594 189.285031 L 84.661656 188.050656 L 90.954625 186.281125 L 96.993687 183.992062 L 102.7515 181.175656 L 108.22025 177.843625 L 113.384312 174.011594 L 118.228062 169.683469 L 122.735875 164.874875 L 126.892125 159.601437 L 130.692906 153.874875 L 134.122594 147.710812 L 137.173375 141.128781 L 139.833531 134.148312 L 142.099156 126.785031 L 143.958531 119.062375 L 145.411656 111.007687 L 146.454625 102.632687 L 147.079625 93.964719 L 147.290562 85.038937 " transform="matrix(1, 0, 0, -1, 218.436, 217.578)"/>
<path fill="none" stroke-width="0.3985" stroke-linecap="butt" stroke-linejoin="miter" stroke="rgb(0%, 0%, 0%)" stroke-opacity="1" stroke-dasharray="0.3985 1.99255" stroke-miterlimit="10" d="M -53.912563 -116.168094 L -53.834438 -106.949344 L -53.607875 -97.429813 L -53.225063 -87.636844 L -52.693813 -77.589969 L -52.010219 -67.320438 L -51.182094 -56.867313 L -50.209438 -46.254031 L -49.09225 -35.507938 L -47.838344 -24.656375 L -46.447719 -13.738406 L -44.924281 -2.785281 L -43.275844 8.179562 L -41.502406 19.124875 L -39.611781 30.011594 L -37.607875 40.812375 L -35.502406 51.499875 L -33.291469 62.042844 L -30.986781 72.406125 L -28.596156 82.562375 L -26.1235 92.488156 L -23.576625 102.152219 L -20.959438 111.527219 L -18.287563 120.585812 L -15.564906 129.29675 L -12.791469 137.648312 L -9.986781 145.605344 L -7.15475 153.148312 L -4.299281 160.261594 L -1.432094 166.92175 L 1.435094 173.101437 L 4.302281 178.79675 L 7.153844 183.98425 L 9.985875 188.648312 L 12.794469 192.781125 L 15.564 196.367062 L 18.286656 199.398312 L 20.962437 201.855344 L 23.575719 203.749875 L 26.122594 205.066281 L 28.59525 205.79675 L 30.989781 205.941281 L 33.290562 205.503781 L 35.5015 204.488156 L 37.610875 202.886594 L 39.610875 200.714719 L 41.5015 197.972531 L 43.274937 194.667844 L 44.923375 190.812375 L 46.446812 186.417844 L 47.837437 181.492062 L 49.091344 176.054562 L 50.208531 170.117062 L 51.185094 163.699094 L 52.013219 156.812375 L 52.692906 149.48425 L 53.224156 141.738156 L 53.606969 133.581906 L 53.837437 125.04675 L 53.911656 116.163937 " transform="matrix(1, 0, 0, -1, 218.436, 217.578)"/>
<path fill="none" stroke-width="0.3985" stroke-linecap="butt" stroke-linejoin="miter" stroke="rgb(0%, 0%, 0%)" stroke-opacity="1" stroke-dasharray="0.3985 1.99255" stroke-miterlimit="10" d="M 53.915562 -116.168094 L 53.837437 -106.949344 L 53.606969 -97.429813 L 53.228062 -87.636844 L 52.692906 -77.589969 L 52.013219 -67.320438 L 51.185094 -56.867313 L 50.208531 -46.254031 L 49.091344 -35.507938 L 47.837437 -24.656375 L 46.446812 -13.738406 L 44.923375 -2.785281 L 43.274937 8.179562 L 41.5015 19.124875 L 39.610875 30.011594 L 37.610875 40.812375 L 35.5015 51.499875 L 33.290562 62.042844 L 30.989781 72.406125 L 28.59525 82.562375 L 26.122594 92.488156 L 23.575719 102.152219 L 20.962437 111.527219 L 18.286656 120.585812 L 15.564 129.29675 L 12.794469 137.648312 L 9.989781 145.605344 L 7.153844 153.148312 L 4.302281 160.261594 L 1.435094 166.92175 L -1.436 173.101437 L -4.299281 178.79675 L -7.15475 183.98425 L -9.986781 188.648312 L -12.791469 192.781125 L -15.564906 196.367062 L -18.287563 199.398312 L -20.959438 201.855344 L -23.576625 203.749875 L -26.1235 205.066281 L -28.596156 205.79675 L -30.986781 205.941281 L -33.291469 205.503781 L -35.502406 204.488156 L -37.607875 202.886594 L -39.611781 200.714719 L -41.502406 197.972531 L -43.275844 194.667844 L -44.924281 190.812375 L -46.447719 186.417844 L -47.838344 181.492062 L -49.09225 176.054562 L -50.209438 170.117062 L -51.182094 163.699094 L -52.010219 156.812375 L -52.693813 149.48425 L -53.225063 141.738156 L -53.607875 133.581906 L -53.834438 125.04675 L -53.912563 116.163937 " transform="matrix(1, 0, 0, -1, 218.436, 217.578)"/>
<path fill="none" stroke-width="0.3985" stroke-linecap="butt" stroke-linejoin="miter" stroke="rgb(0%, 0%, 0%)" stroke-opacity="1" stroke-dasharray="0.3985 1.99255" stroke-miterlimit="10" d="M 0.0015 170.081906 L 0.0015 170.081906 " transform="matrix(1, 0, 0, -1, 218.436, 217.578)"/>
<path fill="none" stroke-width="0.3985" stroke-linecap="butt" stroke-linejoin="miter" stroke="rgb(0%, 0%, 0%)" stroke-opacity="1" stroke-dasharray="0.3985 1.99255" stroke-miterlimit="10" d="M 38.122594 142.277219 L 41.958531 144.742062 L 45.317906 147.425656 L 48.165562 150.304562 L 50.466344 153.335812 L 52.196812 156.495969 L 53.333531 159.745969 L 53.868687 163.042844 L 53.794469 166.355344 L 53.106969 169.644406 L 51.817906 172.874875 L 49.942906 176.007687 L 47.5015 179.003781 L 44.524937 181.835812 L 41.040562 184.468625 L 37.091344 186.870969 L 32.724156 189.019406 L 27.985875 190.8905 L 22.931187 192.456906 L 17.610875 193.703 L 12.09525 194.617062 L 6.442906 195.187375 L 0.72025 195.410031 L -5.014125 195.277219 L -10.693813 194.792844 L -16.2485 193.964719 L -21.6235 192.79675 L -26.7485 191.308469 L -31.572719 189.5155 L -36.037563 187.433469 L -40.096156 185.093625 L -43.697719 182.5155 L -46.807094 179.730344 L -49.385219 176.769406 L -51.400844 173.667844 L -52.838344 170.460812 L -53.678188 167.183469 L -53.90475 163.870969 L -53.525844 160.566281 L -52.537563 157.300656 L -50.955531 154.117062 L -48.791469 151.04675 L -46.076625 148.128781 L -42.84225 145.394406 L -39.119594 142.870969 L -34.959438 140.589719 L -30.396938 138.578 L -25.494594 136.85925 L -20.299281 135.449094 L -14.877406 134.367062 L -9.283656 133.624875 L -3.584438 133.230344 L 2.149937 133.183469 L 7.864781 133.492062 L 13.489781 134.152219 L 18.962437 135.148312 L 24.22025 136.476437 L 29.200719 138.120969 L 33.853062 140.062375 L 38.122594 142.277219 " transform="matrix(1, 0, 0, -1, 218.436, 217.578)"/>
<path fill="none" stroke-width="0.3985" stroke-linecap="butt" stroke-linejoin="miter" stroke="rgb(0%, 0%, 0%)" stroke-opacity="1" stroke-dasharray="0.3985 1.99255" stroke-miterlimit="10" d="M 73.646031 104.773312 L 81.056187 109.535031 L 87.548375 114.722531 L 93.048375 120.281125 L 97.489781 126.144406 L 100.833531 132.249875 L 103.036656 138.519406 L 104.064 144.894406 L 103.919469 151.292844 L 102.59525 157.648312 L 100.106969 163.886594 L 96.481969 169.937375 L 91.767125 175.726437 L 86.013219 181.199094 L 79.28275 186.285031 L 71.65775 190.929562 L 63.22025 195.078 L 54.064 198.687375 L 44.294469 201.714719 L 34.024937 204.124875 L 23.368687 205.8905 L 12.446812 206.992062 L 1.388219 207.417844 L -9.689906 207.163937 L -20.658656 206.230344 L -31.393031 204.628781 L -41.768031 202.374875 L -51.674281 199.499875 L -60.990688 196.035031 L -69.6235 192.0155 L -77.459438 187.492062 L -84.420375 182.507687 L -90.424281 177.128781 L -95.40475 171.410031 L -99.303188 165.42175 L -102.076625 159.222531 L -103.697719 152.8905 L -104.139125 146.495969 L -103.400844 140.10925 L -101.494594 133.804562 L -98.436 127.652219 L -94.260219 121.722531 L -89.018031 116.081906 L -82.768031 110.79675 L -75.576625 105.92175 L -67.533656 101.519406 L -58.725063 97.632687 L -49.2485 94.312375 L -39.21725 91.589719 L -28.736781 89.495969 L -17.936 88.062375 L -6.928188 87.29675 L 4.15775 87.214719 L 15.192906 87.808469 L 26.060094 89.078 L 36.630406 91.007687 L 46.786656 93.574094 L 56.411656 96.749875 L 65.399937 100.495969 L 73.646031 104.773312 " transform="matrix(1, 0, 0, -1, 218.436, 217.578)"/>
<path fill="none" stroke-width="0.3985" stroke-linecap="butt" stroke-linejoin="miter" stroke="rgb(0%, 0%, 0%)" stroke-opacity="1" stroke-dasharray="0.3985 1.99255" stroke-miterlimit="10" d="M 104.153844 60.132687 L 114.630406 66.867062 L 123.810094 74.203 L 131.587437 82.062375 L 137.872594 90.355344 L 142.599156 98.988156 L 145.712437 107.85925 L 147.169469 116.870969 L 146.962437 125.92175 L 145.091344 134.910031 L 141.571812 143.730344 L 136.446812 152.285031 L 129.778844 160.476437 L 121.642125 168.214719 L 112.122594 175.406125 L 101.337437 181.972531 L 89.403844 187.843625 L 76.462437 192.949094 L 62.642125 197.230344 L 48.118687 200.636594 L 33.048375 203.136594 L 17.603062 204.691281 L 1.962437 205.292844 L -13.701625 204.929562 L -29.213344 203.60925 L -44.393031 201.343625 L -59.072719 198.163937 L -73.080531 194.097531 L -86.256313 189.195187 L -98.459438 183.511594 L -109.545375 177.113156 L -119.389125 170.066281 L -127.877406 162.456906 L -134.920375 154.370969 L -140.436 145.898312 L -144.357875 137.132687 L -146.646938 128.179562 L -147.275844 119.132687 L -146.232875 110.101437 L -143.537563 101.183469 L -139.209438 92.48425 L -133.307094 84.097531 L -125.889125 76.120969 L -117.049281 68.648312 L -106.881313 61.757687 L -95.506313 55.531125 L -83.049281 50.035031 L -69.650844 45.339719 L -55.459438 41.488156 L -40.643031 38.527219 L -25.365688 36.499875 L -9.799281 35.417844 L 5.8765 35.29675 L 21.489781 36.1405 L 36.853062 37.937375 L 51.806187 40.663937 L 66.169469 44.292844 L 79.778844 48.781125 L 92.489781 54.081906 L 104.149937 60.132687 " transform="matrix(1, 0, 0, -1, 218.436, 217.578)"/>
<path fill="none" stroke-width="0.3985" stroke-linecap="butt" stroke-linejoin="miter" stroke="rgb(0%, 0%, 0%)" stroke-opacity="1" stroke-dasharray="0.3985 1.99255" stroke-miterlimit="10" d="M 127.560094 11.394406 L 140.392125 19.6405 L 151.638219 28.624875 L 161.161656 38.253781 L 168.860875 48.406125 L 174.649937 58.980344 L 178.462437 69.843625 L 180.247594 80.882687 L 179.993687 91.968625 L 177.700719 102.976437 L 173.392125 113.777219 L 167.114781 124.257687 L 158.946812 134.288937 L 148.978062 143.7655 L 137.321812 152.574094 L 124.114781 160.617062 L 109.497594 167.804562 L 93.646031 174.058469 L 76.724156 179.300656 L 58.931187 183.476437 L 40.478062 186.535031 L 21.560094 188.441281 L 2.403844 189.179562 L -16.783656 188.73425 L -35.77975 187.117062 L -54.3735 184.343625 L -72.346156 180.445187 L -89.502406 175.464719 L -105.643031 169.460812 L -120.588344 162.499875 L -134.162563 154.663937 L -146.221156 146.035031 L -156.619594 136.714719 L -165.244594 126.812375 L -171.9985 116.433469 L -176.803188 105.699094 L -179.607875 94.730344 L -180.3735 83.656125 L -179.100063 72.593625 L -175.795375 61.67175 L -170.494594 51.0155 L -163.268031 40.745969 L -154.182094 30.976437 L -143.357875 21.824094 L -130.90475 13.382687 L -116.971156 5.757687 L -101.713344 -0.972781 L -85.303188 -6.726688 L -67.924281 -11.441531 L -49.775844 -15.066531 L -31.064906 -17.550906 L -11.9985 -18.879031 L 7.200719 -19.023563 L 26.317906 -17.992313 L 45.138219 -15.793094 L 63.446812 -12.45325 L 81.040562 -8.007938 L 97.712437 -2.507938 L 113.274937 3.98425 L 127.560094 11.394406 " transform="matrix(1, 0, 0, -1, 218.436, 217.578)"/>
<path fill="none" stroke-width="0.3985" stroke-linecap="butt" stroke-linejoin="miter" stroke="rgb(0%, 0%, 0%)" stroke-opacity="1" stroke-dasharray="0.3985 1.99255" stroke-miterlimit="10" d="M 142.274937 -38.121219 L 156.587437 -28.925906 L 169.1265 -18.902469 L 179.7515 -8.164188 L 188.337437 3.160031 L 194.794469 14.953 L 199.048375 27.070187 L 201.040562 39.382687 L 200.755406 51.745969 L 198.196812 64.023312 L 193.392125 76.074094 L 186.392125 87.761594 L 177.278844 98.949094 L 166.165562 109.519406 L 153.161656 119.343625 L 138.431187 128.316281 L 122.130406 136.331906 L 104.446812 143.304562 L 85.571812 149.152219 L 65.728062 153.808469 L 45.146031 157.222531 L 24.048375 159.347531 L 2.681187 160.17175 L -18.71725 159.675656 L -39.908656 157.870969 L -60.643031 154.777219 L -80.693813 150.429562 L -99.826625 144.874875 L -117.830531 138.179562 L -134.4985 130.413937 L -149.639125 121.67175 L -163.088344 112.050656 L -174.686 101.656125 L -184.307094 90.60925 L -191.838344 79.035031 L -197.197719 67.062375 L -200.326625 54.828 L -201.178188 42.476437 L -199.756313 30.136594 L -196.072719 17.956906 L -190.162563 6.074094 L -182.100063 -5.382938 L -171.96725 -16.281375 L -159.893031 -26.488406 L -146.002406 -35.902469 L -130.46725 -44.410281 L -113.447719 -51.914188 L -95.143031 -58.332156 L -75.760219 -63.593875 L -55.518031 -67.636844 L -34.646938 -70.406375 L -13.385219 -71.886844 L 8.028844 -72.047 L 29.353062 -70.898563 L 50.34525 -68.445438 L 70.767125 -64.718875 L 90.388219 -59.757938 L 108.981969 -53.625125 L 126.34525 -46.386844 L 142.274937 -38.121219 " transform="matrix(1, 0, 0, -1, 218.436, 217.578)"/>
<path fill="none" stroke-width="0.3985" stroke-linecap="butt" stroke-linejoin="miter" stroke="rgb(0%, 0%, 0%)" stroke-opacity="1" stroke-dasharray="0.3985 1.99255" stroke-miterlimit="10" d="M 147.294469 -85.039188 L 162.110875 -75.519656 L 175.09525 -65.14075 L 186.09525 -54.027469 L 194.981969 -42.300906 L 201.665562 -30.089969 L 206.071812 -17.547 L 208.130406 -4.800906 L 207.837437 7.999875 L 205.189 20.706906 L 200.216344 33.183469 L 192.966344 45.281125 L 183.53275 56.867062 L 172.024937 67.808469 L 158.567906 77.980344 L 143.314 87.269406 L 126.439 95.570187 L 108.130406 102.788937 L 88.591344 108.843625 L 68.048375 113.660031 L 46.739781 117.195187 L 24.896031 119.398312 L 2.774937 120.249875 L -19.377406 119.73425 L -41.314906 117.867062 L -62.783656 114.663937 L -83.537563 110.163937 L -103.350063 104.413937 L -121.986781 97.480344 L -139.244594 89.441281 L -154.916469 80.3905 L -168.838344 70.429562 L -180.850063 59.667844 L -190.807094 48.230344 L -198.607875 36.249875 L -204.15475 23.855344 L -207.393031 11.187375 L -208.275844 -1.601688 L -206.803188 -14.371219 L -202.990688 -26.9845 L -196.869594 -39.285281 L -188.521938 -51.148563 L -178.033656 -62.425906 L -165.533656 -72.996219 L -151.15475 -82.742313 L -135.068813 -91.550906 L -117.447719 -99.320438 L -98.502406 -105.964969 L -78.432094 -111.410281 L -57.475063 -115.593875 L -35.869594 -118.464969 L -13.857875 -119.992313 L 8.314 -120.164188 L 30.388219 -118.972781 L 52.118687 -116.433719 L 73.263219 -112.574344 L 93.575719 -107.441531 L 112.825719 -101.089969 L 130.798375 -93.593875 L 147.290562 -85.039188 " transform="matrix(1, 0, 0, -1, 218.436, 217.578)"/>
<path fill-rule="nonzero" fill="rgb(100%, 25%, 25%)" fill-opacity="0.25" stroke-width="0.3985" stroke-linecap="butt" stroke-linejoin="miter" stroke="rgb(75%, 0%, 0%)" stroke-opacity="1" stroke-miterlimit="10" d="M 12.274937 162.402219 L 13.509312 163.195187 L 14.591344 164.062375 L 15.509312 164.988156 L 16.247594 165.964719 L 16.806187 166.980344 L 17.173375 168.027219 L 17.34525 169.089719 L 17.317906 170.156125 L 17.099156 171.214719 L 16.685094 172.253781 L 16.079625 173.261594 L 15.294469 174.226437 L 14.337437 175.1405 L 13.212437 175.988156 L 11.942906 176.761594 L 10.536656 177.453 L 9.009312 178.054562 L 7.384312 178.558469 L 5.669469 178.960812 L 3.896031 179.253781 L 2.075719 179.437375 L 0.231969 179.511594 L -1.615688 179.468625 L -3.443813 179.312375 L -5.232875 179.042844 L -6.959438 178.667844 L -8.611781 178.191281 L -10.166469 177.613156 L -11.603969 176.941281 L -12.908656 176.187375 L -14.068813 175.35925 L -15.068813 174.460812 L -15.900844 173.507687 L -16.549281 172.511594 L -17.014125 171.476437 L -17.283656 170.42175 L -17.357875 169.355344 L -17.232875 168.292844 L -16.916469 167.242062 L -16.40475 166.214719 L -15.709438 165.226437 L -14.834438 164.288937 L -13.795375 163.406125 L -12.596156 162.593625 L -11.256313 161.85925 L -9.787563 161.210812 L -8.209438 160.660031 L -6.537563 160.206906 L -4.791469 159.855344 L -2.990688 159.617062 L -1.15475 159.488156 L 0.692906 159.476437 L 2.53275 159.574094 L 4.34525 159.785031 L 6.106969 160.10925 L 7.798375 160.535031 L 9.403844 161.066281 L 10.899937 161.691281 Z M 12.274937 162.402219 " transform="matrix(1, 0, 0, -1, 218.436, 217.578)"/>
<path fill-rule="nonzero" fill="rgb(100%, 25%, 25%)" fill-opacity="0.25" stroke-width="0.3985" stroke-linecap="butt" stroke-linejoin="miter" stroke="rgb(75%, 0%, 0%)" stroke-opacity="1" stroke-miterlimit="10" d="M -12.275844 145.843625 L -11.041469 146.8905 L -9.959438 148.007687 L -9.041469 149.179562 L -8.299281 150.394406 L -7.744594 151.636594 L -7.377406 152.894406 L -7.205531 154.152219 L -7.228969 155.394406 L -7.451625 156.60925 L -7.865688 157.785031 L -8.46725 158.902219 L -9.256313 159.953 L -10.213344 160.925656 L -11.334438 161.808469 L -12.607875 162.585812 L -14.014125 163.257687 L -15.537563 163.812375 L -17.166469 164.245969 L -18.877406 164.54675 L -20.65475 164.722531 L -22.475063 164.757687 L -24.318813 164.663937 L -26.162563 164.433469 L -27.990688 164.074094 L -29.77975 163.589719 L -31.510219 162.980344 L -33.162563 162.261594 L -34.713344 161.433469 L -36.150844 160.507687 L -37.459438 159.499875 L -38.619594 158.413937 L -39.619594 157.2655 L -40.447719 156.070187 L -41.100063 154.835812 L -41.561 153.581906 L -41.830531 152.320187 L -41.90475 151.062375 L -41.783656 149.828 L -41.463344 148.628781 L -40.955531 147.480344 L -40.260219 146.3905 L -39.385219 145.374875 L -38.34225 144.445187 L -37.146938 143.613156 L -35.803188 142.886594 L -34.334438 142.273312 L -32.756313 141.781125 L -31.084438 141.413937 L -29.338344 141.179562 L -27.537563 141.078 L -25.705531 141.10925 L -23.857875 141.277219 L -22.018031 141.574094 L -20.205531 141.999875 L -18.443813 142.550656 L -16.752406 143.218625 L -15.146938 143.995969 L -13.650844 144.874875 Z M -12.275844 145.843625 " transform="matrix(1, 0, 0, -1, 218.436, 217.578)"/>
<path fill-rule="nonzero" fill="rgb(100%, 25%, 25%)" fill-opacity="0.25" stroke-width="0.3985" stroke-linecap="butt" stroke-linejoin="miter" stroke="rgb(75%, 0%, 0%)" stroke-opacity="1" stroke-miterlimit="10" d="M -36.822719 124.292844 L -35.588344 125.620969 L -34.506313 127.011594 L -33.59225 128.449094 L -32.850063 129.917844 L -32.291469 131.406125 L -31.924281 132.8905 L -31.752406 134.355344 L -31.77975 135.788937 L -31.9985 137.167844 L -32.412563 138.48425 L -33.018031 139.722531 L -33.803188 140.863156 L -34.764125 141.898312 L -35.885219 142.816281 L -37.15475 143.605344 L -38.561 144.253781 L -40.088344 144.757687 L -41.71725 145.113156 L -43.428188 145.312375 L -45.201625 145.355344 L -47.021938 145.238156 L -48.865688 144.964719 L -50.713344 144.535031 L -52.541469 143.956906 L -54.330531 143.238156 L -56.061 142.382687 L -57.709438 141.398312 L -59.264125 140.300656 L -60.701625 139.101437 L -62.006313 137.812375 L -63.166469 136.445187 L -64.170375 135.023312 L -64.9985 133.554562 L -65.646938 132.062375 L -66.111781 130.562375 L -66.381313 129.070187 L -66.455531 127.601437 L -66.330531 126.175656 L -66.014125 124.808469 L -65.502406 123.5155 L -64.807094 122.312375 L -63.936 121.214719 L -62.893031 120.230344 L -61.693813 119.374875 L -60.353969 118.656125 L -58.885219 118.081906 L -57.307094 117.660031 L -55.635219 117.3905 L -53.889125 117.285031 L -52.088344 117.335812 L -50.252406 117.54675 L -48.40475 117.917844 L -46.564906 118.437375 L -44.756313 119.101437 L -42.994594 119.906125 L -41.299281 120.839719 L -39.697719 121.886594 L -38.197719 123.042844 Z M -36.822719 124.292844 " transform="matrix(1, 0, 0, -1, 218.436, 217.578)"/>
<path fill-rule="nonzero" fill="rgb(100%, 25%, 25%)" fill-opacity="0.25" stroke-width="0.3985" stroke-linecap="butt" stroke-linejoin="miter" stroke="rgb(75%, 0%, 0%)" stroke-opacity="1" stroke-miterlimit="10" d="M -61.3735 97.003781 L -60.139125 98.667844 L -59.057094 100.3905 L -58.139125 102.148312 L -57.396938 103.925656 L -56.84225 105.699094 L -56.475063 107.453 L -56.303188 109.163937 L -56.326625 110.820187 L -56.549281 112.394406 L -56.963344 113.878781 L -57.568813 115.253781 L -58.353969 116.499875 L -59.311 117.60925 L -60.432094 118.566281 L -61.705531 119.363156 L -63.111781 119.988156 L -64.635219 120.437375 L -66.264125 120.699094 L -67.975063 120.777219 L -69.752406 120.667844 L -71.572719 120.370969 L -73.416469 119.886594 L -75.260219 119.226437 L -77.088344 118.3905 L -78.877406 117.3905 L -80.607875 116.23425 L -82.260219 114.937375 L -83.811 113.5155 L -85.252406 111.980344 L -86.557094 110.351437 L -87.71725 108.648312 L -88.71725 106.882687 L -89.549281 105.085812 L -90.197719 103.269406 L -90.658656 101.460812 L -90.928188 99.679562 L -91.002406 97.945187 L -90.881313 96.277219 L -90.564906 94.699094 L -90.053188 93.226437 L -89.357875 91.878781 L -88.482875 90.67175 L -87.439906 89.620969 L -86.244594 88.73425 L -84.90475 88.023312 L -83.436 87.499875 L -81.853969 87.167844 L -80.182094 87.027219 L -78.436 87.081906 L -76.635219 87.328 L -74.803188 87.769406 L -72.955531 88.3905 L -71.115688 89.187375 L -69.303188 90.152219 L -67.541469 91.273312 L -65.850063 92.531125 L -64.244594 93.917844 L -62.7485 95.413937 Z M -61.3735 97.003781 " transform="matrix(1, 0, 0, -1, 218.436, 217.578)"/>
<path fill-rule="nonzero" fill="rgb(100%, 25%, 25%)" fill-opacity="0.25" stroke-width="0.3985" stroke-linecap="butt" stroke-linejoin="miter" stroke="rgb(75%, 0%, 0%)" stroke-opacity="1" stroke-miterlimit="10" d="M -85.920375 62.195187 L -84.686 64.335812 L -83.603969 66.523312 L -82.689906 68.726437 L -81.947719 70.92175 L -81.393031 73.093625 L -81.025844 75.210812 L -80.853969 77.257687 L -80.877406 79.210812 L -81.096156 81.04675 L -81.514125 82.753781 L -82.115688 84.304562 L -82.900844 85.695187 L -83.861781 86.902219 L -84.982875 87.910031 L -86.252406 88.718625 L -87.658656 89.312375 L -89.186 89.683469 L -90.814906 89.828 L -92.525844 89.745969 L -94.303188 89.433469 L -96.1235 88.894406 L -97.963344 88.132687 L -99.811 87.156125 L -101.639125 85.968625 L -103.428188 84.589719 L -105.158656 83.023312 L -106.807094 81.29675 L -108.361781 79.417844 L -109.799281 77.413937 L -111.103969 75.300656 L -112.264125 73.105344 L -113.268031 70.851437 L -114.096156 68.566281 L -114.7485 66.277219 L -115.209438 64.007687 L -115.478969 61.792844 L -115.553188 59.652219 L -115.428188 57.617062 L -115.111781 55.710812 L -114.600063 53.960812 L -113.908656 52.386594 L -113.033656 51.011594 L -111.990688 49.847531 L -110.791469 48.913937 L -109.451625 48.222531 L -107.982875 47.777219 L -106.40475 47.581906 L -104.732875 47.6405 L -102.986781 47.945187 L -101.186 48.499875 L -99.350063 49.285031 L -97.502406 50.29675 L -95.662563 51.5155 L -93.853969 52.929562 L -92.09225 54.5155 L -90.396938 56.257687 L -88.795375 58.132687 L -87.295375 60.120969 Z M -85.920375 62.195187 " transform="matrix(1, 0, 0, -1, 218.436, 217.578)"/>
<path fill-rule="nonzero" fill="rgb(100%, 25%, 25%)" fill-opacity="0.25" stroke-width="0.3985" stroke-linecap="butt" stroke-linejoin="miter" stroke="rgb(75%, 0%, 0%)" stroke-opacity="1" stroke-miterlimit="10" d="M 21.259312 138.558469 L 22.493687 139.492062 L 23.575719 140.523312 L 24.493687 141.632687 L 25.235875 142.812375 L 25.790562 144.04675 L 26.15775 145.320187 L 26.329625 146.624875 L 26.306187 147.941281 L 26.083531 149.253781 L 25.669469 150.550656 L 25.067906 151.812375 L 24.278844 153.027219 L 23.321812 154.183469 L 22.200719 155.269406 L 20.927281 156.2655 L 19.521031 157.163937 L 17.997594 157.960812 L 16.368687 158.636594 L 14.65775 159.191281 L 12.880406 159.617062 L 11.060094 159.906125 L 9.216344 160.058469 L 7.372594 160.074094 L 5.544469 159.945187 L 3.755406 159.679562 L 2.024937 159.281125 L 0.372594 158.749875 L -1.178188 158.097531 L -2.619594 157.324094 L -3.924281 156.441281 L -5.084438 155.464719 L -6.084438 154.398312 L -6.916469 153.253781 L -7.564906 152.050656 L -8.025844 150.79675 L -8.295375 149.507687 L -8.369594 148.199094 L -8.2485 146.882687 L -7.928188 145.578 L -7.420375 144.29675 L -6.725063 143.054562 L -5.850063 141.863156 L -4.807094 140.738156 L -3.611781 139.695187 L -2.271938 138.742062 L -0.803188 137.8905 L 0.778844 137.148312 L 2.450719 136.527219 L 4.196812 136.035031 L 5.997594 135.675656 L 7.829625 135.449094 L 9.677281 135.367062 L 11.517125 135.42175 L 13.329625 135.617062 L 15.091344 135.949094 L 16.78275 136.417844 L 18.388219 137.011594 L 19.884312 137.726437 Z M 21.259312 138.558469 " transform="matrix(1, 0, 0, -1, 218.436, 217.578)"/>
<path fill-rule="nonzero" fill="rgb(100%, 25%, 25%)" fill-opacity="0.25" stroke-width="0.3985" stroke-linecap="butt" stroke-linejoin="miter" stroke="rgb(75%, 0%, 0%)" stroke-opacity="1" stroke-miterlimit="10" d="M -3.287563 119.441281 L -2.053188 120.648312 L -0.971156 121.941281 L -0.0570938 123.312375 L 0.685094 124.742062 L 1.243687 126.218625 L 1.606969 127.718625 L 1.778844 129.230344 L 1.755406 130.730344 L 1.536656 132.210812 L 1.122594 133.648312 L 0.517125 135.027219 L -0.268031 136.335812 L -1.228969 137.558469 L -2.350063 138.679562 L -3.619594 139.687375 L -5.025844 140.570187 L -6.553188 141.320187 L -8.182094 141.925656 L -9.893031 142.382687 L -11.670375 142.683469 L -13.490688 142.828 L -15.330531 142.812375 L -17.178188 142.6405 L -19.006313 142.304562 L -20.795375 141.820187 L -22.525844 141.183469 L -24.174281 140.406125 L -25.728969 139.495969 L -27.166469 138.464719 L -28.471156 137.320187 L -29.631313 136.074094 L -30.635219 134.749875 L -31.463344 133.351437 L -32.111781 131.898312 L -32.576625 130.410031 L -32.846156 128.898312 L -32.920375 127.382687 L -32.795375 125.882687 L -32.478969 124.413937 L -31.96725 122.992062 L -31.271938 121.632687 L -30.400844 120.355344 L -29.357875 119.17175 L -28.158656 118.093625 L -26.818813 117.136594 L -25.350063 116.312375 L -23.771938 115.624875 L -22.100063 115.089719 L -20.353969 114.706906 L -18.553188 114.48425 L -16.71725 114.425656 L -14.869594 114.523312 L -13.02975 114.788937 L -11.221156 115.206906 L -9.459438 115.781125 L -7.764125 116.499875 L -6.162563 117.355344 L -4.662563 118.339719 Z M -3.287563 119.441281 " transform="matrix(1, 0, 0, -1, 218.436, 217.578)"/>
<path fill-rule="nonzero" fill="rgb(100%, 25%, 25%)" fill-opacity="0.25" stroke-width="0.3985" stroke-linecap="butt" stroke-linejoin="miter" stroke="rgb(75%, 0%, 0%)" stroke-opacity="1" stroke-miterlimit="10" d="M -27.838344 94.8905 L -26.603969 96.410031 L -25.521938 98.0155 L -24.603969 99.683469 L -23.865688 101.406125 L -23.307094 103.152219 L -22.939906 104.910031 L -22.768031 106.660031 L -22.791469 108.378781 L -23.014125 110.04675 L -23.428188 111.652219 L -24.033656 113.17175 L -24.818813 114.585812 L -25.775844 115.8905 L -26.900844 117.058469 L -28.170375 118.081906 L -29.576625 118.953 L -31.100063 119.660031 L -32.728969 120.195187 L -34.443813 120.54675 L -36.21725 120.722531 L -38.037563 120.706906 L -39.881313 120.511594 L -41.728969 120.128781 L -43.557094 119.570187 L -45.346156 118.835812 L -47.072719 117.937375 L -48.725063 116.882687 L -50.27975 115.683469 L -51.71725 114.351437 L -53.021938 112.906125 L -54.182094 111.35925 L -55.182094 109.726437 L -56.014125 108.031125 L -56.662563 106.285031 L -57.1235 104.5155 L -57.396938 102.742062 L -57.46725 100.980344 L -57.346156 99.253781 L -57.02975 97.581906 L -56.518031 95.988156 L -55.822719 94.480344 L -54.947719 93.089719 L -53.908656 91.824094 L -52.709438 90.699094 L -51.369594 89.726437 L -49.900844 88.925656 L -48.322719 88.300656 L -46.646938 87.855344 L -44.900844 87.597531 L -43.100063 87.535031 L -41.268031 87.660031 L -39.420375 87.976437 L -37.580531 88.476437 L -35.768031 89.160031 L -34.006313 90.011594 L -32.314906 91.023312 L -30.709438 92.183469 L -29.213344 93.476437 Z M -27.838344 94.8905 " transform="matrix(1, 0, 0, -1, 218.436, 217.578)"/>
<path fill-rule="nonzero" fill="rgb(100%, 25%, 25%)" fill-opacity="0.25" stroke-width="0.3985" stroke-linecap="butt" stroke-linejoin="miter" stroke="rgb(75%, 0%, 0%)" stroke-opacity="1" stroke-miterlimit="10" d="M -52.385219 63.6405 L -51.15475 65.570187 L -50.068813 67.578 L -49.15475 69.644406 L -48.412563 71.738156 L -47.857875 73.843625 L -47.490688 75.937375 L -47.318813 77.992062 L -47.34225 79.988156 L -47.561 81.906125 L -47.978969 83.726437 L -48.580531 85.42175 L -49.365688 86.98425 L -50.326625 88.3905 L -51.447719 89.628781 L -52.71725 90.683469 L -54.1235 91.54675 L -55.650844 92.210812 L -57.27975 92.660031 L -58.990688 92.898312 L -60.768031 92.913937 L -62.588344 92.714719 L -64.432094 92.29675 L -66.275844 91.663937 L -68.103969 90.820187 L -69.893031 89.781125 L -71.6235 88.554562 L -73.275844 87.148312 L -74.826625 85.578 L -76.264125 83.863156 L -77.572719 82.027219 L -78.732875 80.078 L -79.732875 78.042844 L -80.561 75.945187 L -81.213344 73.808469 L -81.674281 71.656125 L -81.943813 69.5155 L -82.018031 67.410031 L -81.896938 65.367062 L -81.576625 63.406125 L -81.068813 61.554562 L -80.3735 59.835812 L -79.4985 58.269406 L -78.455531 56.878781 L -77.256313 55.675656 L -75.916469 54.67175 L -74.447719 53.8905 L -72.869594 53.335812 L -71.197719 53.007687 L -69.451625 52.917844 L -67.650844 53.062375 L -65.814906 53.441281 L -63.96725 54.04675 L -62.131313 54.870969 L -60.318813 55.906125 L -58.557094 57.132687 L -56.865688 58.535031 L -55.260219 60.101437 L -53.760219 61.808469 L -52.389125 63.6405 Z M -52.385219 63.6405 " transform="matrix(1, 0, 0, -1, 218.436, 217.578)"/>
<path fill-rule="nonzero" fill="rgb(100%, 25%, 25%)" fill-opacity="0.25" stroke-width="0.3985" stroke-linecap="butt" stroke-linejoin="miter" stroke="rgb(75%, 0%, 0%)" stroke-opacity="1" stroke-miterlimit="10" d="M -76.936 22.480344 L -75.701625 25.097531 L -74.619594 27.769406 L -73.701625 30.472531 L -72.963344 33.17175 L -72.40475 35.839719 L -72.037563 38.456906 L -71.865688 40.992062 L -71.893031 43.417844 L -72.111781 45.714719 L -72.525844 47.863156 L -73.131313 49.835812 L -73.916469 51.620969 L -74.8735 53.195187 L -75.9985 54.542844 L -77.268031 55.656125 L -78.674281 56.523312 L -80.197719 57.128781 L -81.826625 57.472531 L -83.541469 57.54675 L -85.314906 57.351437 L -87.135219 56.882687 L -88.978969 56.148312 L -90.826625 55.148312 L -92.65475 53.894406 L -94.443813 52.398312 L -96.170375 50.67175 L -97.822719 48.726437 L -99.377406 46.585812 L -100.814906 44.269406 L -102.119594 41.79675 L -103.27975 39.195187 L -104.27975 36.492062 L -105.111781 33.718625 L -105.760219 30.902219 L -106.225063 28.078 L -106.494594 25.277219 L -106.568813 22.538937 L -106.443813 19.898312 L -106.127406 17.382687 L -105.615688 15.035031 L -104.920375 12.886594 L -104.045375 10.964719 L -103.006313 9.300656 L -101.807094 7.913937 L -100.46725 6.828 L -98.9985 6.058469 L -97.420375 5.613156 L -95.7485 5.492062 L -94.002406 5.703 L -92.201625 6.23425 L -90.365688 7.074094 L -88.518031 8.210812 L -86.678188 9.620969 L -84.865688 11.285031 L -83.103969 13.175656 L -81.412563 15.273312 L -79.807094 17.538937 L -78.311 19.953 Z M -76.936 22.480344 " transform="matrix(1, 0, 0, -1, 218.436, 217.578)"/>
<path fill-rule="nonzero" fill="rgb(100%, 25%, 25%)" fill-opacity="0.25" stroke-width="0.3985" stroke-linecap="butt" stroke-linejoin="miter" stroke="rgb(75%, 0%, 0%)" stroke-opacity="1" stroke-miterlimit="10" d="M 54.794469 126.238156 L 56.028844 127.058469 L 57.110875 127.995969 L 58.028844 129.04675 L 58.767125 130.195187 L 59.325719 131.425656 L 59.692906 132.730344 L 59.864781 134.089719 L 59.841344 135.488156 L 59.618687 136.913937 L 59.204625 138.347531 L 58.599156 139.769406 L 57.814 141.167844 L 56.856969 142.527219 L 55.735875 143.828 L 54.462437 145.058469 L 53.056187 146.203 L 51.53275 147.253781 L 49.903844 148.191281 L 48.189 149.011594 L 46.415562 149.699094 L 44.59525 150.249875 L 42.7515 150.660031 L 40.903844 150.92175 L 39.075719 151.031125 L 37.286656 150.992062 L 35.560094 150.800656 L 33.90775 150.460812 L 32.356969 149.976437 L 30.915562 149.355344 L 29.610875 148.601437 L 28.450719 147.722531 L 27.450719 146.730344 L 26.618687 145.6405 L 25.97025 144.456906 L 25.509312 143.195187 L 25.239781 141.874875 L 25.165562 140.503781 L 25.286656 139.101437 L 25.603062 137.683469 L 26.114781 136.2655 L 26.810094 134.85925 L 27.685094 133.48425 L 28.728062 132.160031 L 29.923375 130.8905 L 31.263219 129.699094 L 32.731969 128.601437 L 34.310094 127.601437 L 35.985875 126.710812 L 37.731969 125.949094 L 39.53275 125.316281 L 41.364781 124.824094 L 43.212437 124.476437 L 45.052281 124.277219 L 46.864781 124.230344 L 48.6265 124.335812 L 50.317906 124.593625 L 51.923375 124.999875 L 53.419469 125.550656 Z M 54.794469 126.238156 " transform="matrix(1, 0, 0, -1, 218.436, 217.578)"/>
<path fill-rule="nonzero" fill="rgb(100%, 25%, 25%)" fill-opacity="0.25" stroke-width="0.3985" stroke-linecap="butt" stroke-linejoin="miter" stroke="rgb(75%, 0%, 0%)" stroke-opacity="1" stroke-miterlimit="10" d="M 30.247594 109.499875 L 31.481969 110.593625 L 32.564 111.804562 L 33.478062 113.120969 L 34.22025 114.523312 L 34.774937 115.999875 L 35.142125 117.531125 L 35.314 119.101437 L 35.290562 120.691281 L 35.071812 122.281125 L 34.653844 123.85925 L 34.052281 125.398312 L 33.267125 126.8905 L 32.306187 128.308469 L 31.185094 129.648312 L 29.915562 130.886594 L 28.509312 132.011594 L 26.981969 133.007687 L 25.353062 133.870969 L 23.642125 134.589719 L 21.864781 135.152219 L 20.044469 135.554562 L 18.204625 135.792844 L 16.356969 135.867062 L 14.528844 135.769406 L 12.739781 135.507687 L 11.009312 135.081906 L 9.356969 134.495969 L 7.806187 133.761594 L 6.368687 132.878781 L 5.060094 131.867062 L 3.899937 130.726437 L 2.899937 129.480344 L 2.071812 128.132687 L 1.419469 126.706906 L 0.958531 125.214719 L 0.689 123.675656 L 0.614781 122.101437 L 0.739781 120.5155 L 1.056187 118.933469 L 1.564 117.370969 L 2.259312 115.851437 L 3.134312 114.386594 L 4.177281 112.995969 L 5.3765 111.691281 L 6.716344 110.492062 L 8.185094 109.413937 L 9.763219 108.464719 L 11.435094 107.656125 L 13.181187 106.999875 L 14.981969 106.503781 L 16.817906 106.167844 L 18.665562 106.003781 L 20.505406 106.011594 L 22.314 106.187375 L 24.075719 106.535031 L 25.771031 107.04675 L 27.372594 107.714719 L 28.872594 108.535031 L 30.243687 109.499875 Z M 30.247594 109.499875 " transform="matrix(1, 0, 0, -1, 218.436, 217.578)"/>
<path fill-rule="nonzero" fill="rgb(100%, 25%, 25%)" fill-opacity="0.25" stroke-width="0.3985" stroke-linecap="butt" stroke-linejoin="miter" stroke="rgb(75%, 0%, 0%)" stroke-opacity="1" stroke-miterlimit="10" d="M 5.696812 87.35925 L 6.931187 88.757687 L 8.013219 90.273312 L 8.931187 91.886594 L 9.669469 93.574094 L 10.228062 95.324094 L 10.59525 97.113156 L 10.767125 98.917844 L 10.739781 100.722531 L 10.521031 102.507687 L 10.106969 104.249875 L 9.5015 105.929562 L 8.716344 107.531125 L 7.759312 109.035031 L 6.634312 110.42175 L 5.364781 111.683469 L 3.958531 112.800656 L 2.435094 113.761594 L 0.806187 114.558469 L -0.908656 115.179562 L -2.682094 115.620969 L -4.502406 115.878781 L -6.346156 115.945187 L -8.193813 115.824094 L -10.021938 115.511594 L -11.811 115.019406 L -13.537563 114.343625 L -15.189906 113.499875 L -16.744594 112.488156 L -18.182094 111.328 L -19.486781 110.027219 L -20.646938 108.601437 L -21.646938 107.066281 L -22.478969 105.437375 L -23.127406 103.73425 L -23.59225 101.976437 L -23.861781 100.179562 L -23.932094 98.370969 L -23.811 96.562375 L -23.494594 94.781125 L -22.982875 93.04675 L -22.287563 91.374875 L -21.412563 89.788937 L -20.3735 88.308469 L -19.174281 86.949094 L -17.834438 85.722531 L -16.365688 84.652219 L -14.787563 83.742062 L -13.111781 83.011594 L -11.369594 82.460812 L -9.568813 82.101437 L -7.732875 81.933469 L -5.885219 81.968625 L -4.045375 82.195187 L -2.232875 82.617062 L -0.471156 83.222531 L 1.22025 84.011594 L 2.825719 84.972531 L 4.321812 86.093625 Z M 5.696812 87.35925 " transform="matrix(1, 0, 0, -1, 218.436, 217.578)"/>
<path fill-rule="nonzero" fill="rgb(100%, 25%, 25%)" fill-opacity="0.25" stroke-width="0.3985" stroke-linecap="butt" stroke-linejoin="miter" stroke="rgb(75%, 0%, 0%)" stroke-opacity="1" stroke-miterlimit="10" d="M -18.853969 58.855344 L -17.619594 60.6405 L -16.537563 62.535031 L -15.619594 64.5155 L -14.877406 66.566281 L -14.322719 68.656125 L -13.955531 70.769406 L -13.783656 72.874875 L -13.807094 74.953 L -14.02975 76.980344 L -14.443813 78.937375 L -15.045375 80.800656 L -15.830531 82.550656 L -16.791469 84.167844 L -17.912563 85.632687 L -19.186 86.937375 L -20.59225 88.062375 L -22.115688 88.995969 L -23.744594 89.730344 L -25.455531 90.253781 L -27.232875 90.566281 L -29.053188 90.663937 L -30.896938 90.538937 L -32.740688 90.199094 L -34.568813 89.6405 L -36.357875 88.878781 L -38.088344 87.913937 L -39.740688 86.753781 L -41.291469 85.417844 L -42.728969 83.917844 L -44.037563 82.269406 L -45.197719 80.48425 L -46.197719 78.589719 L -47.025844 76.601437 L -47.678188 74.542844 L -48.139125 72.437375 L -48.408656 70.308469 L -48.482875 68.179562 L -48.361781 66.074094 L -48.041469 64.019406 L -47.533656 62.038937 L -46.838344 60.156125 L -45.963344 58.3905 L -44.920375 56.769406 L -43.721156 55.308469 L -42.381313 54.027219 L -40.912563 52.941281 L -39.334438 52.062375 L -37.662563 51.406125 L -35.916469 50.972531 L -34.115688 50.777219 L -32.27975 50.812375 L -30.436 51.081906 L -28.596156 51.581906 L -26.783656 52.308469 L -25.021938 53.245969 L -23.330531 54.382687 L -21.725063 55.710812 L -20.228969 57.206906 Z M -18.853969 58.855344 " transform="matrix(1, 0, 0, -1, 218.436, 217.578)"/>
<path fill-rule="nonzero" fill="rgb(100%, 25%, 25%)" fill-opacity="0.25" stroke-width="0.3985" stroke-linecap="butt" stroke-linejoin="miter" stroke="rgb(75%, 0%, 0%)" stroke-opacity="1" stroke-miterlimit="10" d="M -43.400844 21.523312 L -42.166469 23.894406 L -41.084438 26.370969 L -40.166469 28.917844 L -39.428188 31.507687 L -38.869594 34.113156 L -38.502406 36.706906 L -38.330531 39.257687 L -38.357875 41.742062 L -38.576625 44.132687 L -38.990688 46.410031 L -39.596156 48.542844 L -40.381313 50.519406 L -41.34225 52.312375 L -42.463344 53.910031 L -43.732875 55.292844 L -45.139125 56.449094 L -46.666469 57.367062 L -48.291469 58.038937 L -50.006313 58.453 L -51.77975 58.60925 L -53.600063 58.499875 L -55.443813 58.132687 L -57.291469 57.507687 L -59.119594 56.624875 L -60.908656 55.499875 L -62.639125 54.136594 L -64.287563 52.54675 L -65.84225 50.753781 L -67.27975 48.7655 L -68.584438 46.60925 L -69.744594 44.300656 L -70.744594 41.867062 L -71.576625 39.331906 L -72.225063 36.722531 L -72.689906 34.070187 L -72.959438 31.402219 L -73.033656 28.749875 L -72.908656 26.144406 L -72.59225 23.620969 L -72.080531 21.206906 L -71.385219 18.937375 L -70.510219 16.839719 L -69.471156 14.941281 L -68.271938 13.269406 L -66.932094 11.847531 L -65.463344 10.695187 L -63.885219 9.828 L -62.213344 9.257687 L -60.46725 8.992062 L -58.666469 9.031125 L -56.830531 9.374875 L -54.982875 10.019406 L -53.143031 10.949094 L -51.334438 12.148312 L -49.568813 13.605344 L -47.877406 15.29675 L -46.271938 17.195187 L -44.775844 19.281125 Z M -43.400844 21.523312 " transform="matrix(1, 0, 0, -1, 218.436, 217.578)"/>
<path fill-rule="nonzero" fill="rgb(100%, 25%, 25%)" fill-opacity="0.25" stroke-width="0.3985" stroke-linecap="butt" stroke-linejoin="miter" stroke="rgb(75%, 0%, 0%)" stroke-opacity="1" stroke-miterlimit="10" d="M 63.778844 93.964719 L 65.013219 94.945187 L 66.09525 96.078 L 67.013219 97.347531 L 67.755406 98.738156 L 68.310094 100.23425 L 68.677281 101.820187 L 68.849156 103.472531 L 68.825719 105.179562 L 68.603062 106.913937 L 68.189 108.660031 L 67.587437 110.394406 L 66.802281 112.101437 L 65.841344 113.757687 L 64.72025 115.347531 L 63.446812 116.851437 L 62.044469 118.249875 L 60.517125 119.535031 L 58.888219 120.683469 L 57.177281 121.691281 L 55.399937 122.538937 L 53.579625 123.222531 L 51.735875 123.73425 L 49.892125 124.070187 L 48.064 124.226437 L 46.274937 124.199094 L 44.544469 123.992062 L 42.892125 123.601437 L 41.341344 123.042844 L 39.903844 122.312375 L 38.59525 121.425656 L 37.435094 120.386594 L 36.435094 119.206906 L 35.606969 117.906125 L 34.954625 116.492062 L 34.493687 114.98425 L 34.224156 113.394406 L 34.149937 111.745969 L 34.271031 110.054562 L 34.591344 108.335812 L 35.099156 106.613156 L 35.794469 104.902219 L 36.669469 103.226437 L 37.712437 101.601437 L 38.911656 100.042844 L 40.2515 98.578 L 41.72025 97.210812 L 43.298375 95.968625 L 44.97025 94.85925 L 46.716344 93.898312 L 48.517125 93.097531 L 50.353062 92.460812 L 52.196812 92.007687 L 54.036656 91.730344 L 55.849156 91.644406 L 57.610875 91.742062 L 59.302281 92.027219 L 60.90775 92.499875 L 62.40775 93.144406 Z M 63.778844 93.964719 " transform="matrix(1, 0, 0, -1, 218.436, 217.578)"/>
<path fill-rule="nonzero" fill="rgb(100%, 25%, 25%)" fill-opacity="0.25" stroke-width="0.3985" stroke-linecap="butt" stroke-linejoin="miter" stroke="rgb(75%, 0%, 0%)" stroke-opacity="1" stroke-miterlimit="10" d="M 39.231969 74.136594 L 40.466344 75.433469 L 41.548375 76.874875 L 42.466344 78.449094 L 43.204625 80.136594 L 43.763219 81.913937 L 44.130406 83.7655 L 44.302281 85.663937 L 44.274937 87.589719 L 44.056187 89.523312 L 43.642125 91.437375 L 43.036656 93.316281 L 42.2515 95.132687 L 41.290562 96.874875 L 40.169469 98.511594 L 38.899937 100.035031 L 37.493687 101.425656 L 35.966344 102.667844 L 34.341344 103.749875 L 32.6265 104.656125 L 30.853062 105.382687 L 29.03275 105.917844 L 27.189 106.257687 L 25.341344 106.398312 L 23.513219 106.335812 L 21.724156 106.078 L 19.993687 105.620969 L 18.34525 104.972531 L 16.790562 104.1405 L 15.353062 103.132687 L 14.048375 101.960812 L 12.888219 100.636594 L 11.888219 99.175656 L 11.056187 97.593625 L 10.40775 95.906125 L 9.942906 94.128781 L 9.673375 92.288937 L 9.599156 90.402219 L 9.724156 88.488156 L 10.040562 86.570187 L 10.552281 84.667844 L 11.247594 82.804562 L 12.122594 81.003781 L 13.161656 79.281125 L 14.360875 77.660031 L 15.700719 76.156125 L 17.169469 74.788937 L 18.747594 73.578 L 20.419469 72.535031 L 22.165562 71.67175 L 23.966344 70.999875 L 25.802281 70.527219 L 27.649937 70.261594 L 29.489781 70.206906 L 31.302281 70.35925 L 33.064 70.722531 L 34.755406 71.288937 L 36.360875 72.054562 L 37.856969 73.007687 L 39.231969 74.1405 Z M 39.231969 74.136594 " transform="matrix(1, 0, 0, -1, 218.436, 217.578)"/>
<path fill-rule="nonzero" fill="rgb(100%, 25%, 25%)" fill-opacity="0.25" stroke-width="0.3985" stroke-linecap="butt" stroke-linejoin="miter" stroke="rgb(75%, 0%, 0%)" stroke-opacity="1" stroke-miterlimit="10" d="M 14.681187 47.906125 L 15.915562 49.581906 L 16.997594 51.406125 L 17.915562 53.355344 L 18.65775 55.402219 L 19.212437 57.531125 L 19.579625 59.706906 L 19.7515 61.913937 L 19.728062 64.120969 L 19.505406 66.304562 L 19.091344 68.445187 L 18.489781 70.511594 L 17.700719 72.48425 L 16.743687 74.347531 L 15.622594 76.074094 L 14.349156 77.648312 L 12.942906 79.054562 L 11.419469 80.277219 L 9.790562 81.304562 L 8.079625 82.128781 L 6.302281 82.73425 L 4.481969 83.120969 L 2.638219 83.281125 L 0.794469 83.218625 L -1.033656 82.929562 L -2.822719 82.413937 L -4.553188 81.687375 L -6.205531 80.745969 L -7.756313 79.605344 L -9.197719 78.277219 L -10.502406 76.773312 L -11.662563 75.10925 L -12.662563 73.308469 L -13.490688 71.378781 L -14.143031 69.351437 L -14.603969 67.242062 L -14.8735 65.078 L -14.947719 62.878781 L -14.826625 60.67175 L -14.506313 58.480344 L -13.9985 56.328 L -13.303188 54.242062 L -12.428188 52.249875 L -11.385219 50.370969 L -10.189906 48.628781 L -8.846156 47.04675 L -7.381313 45.6405 L -5.799281 44.429562 L -4.127406 43.433469 L -2.381313 42.656125 L -0.580531 42.117062 L 1.2515 41.816281 L 3.099156 41.761594 L 4.939 41.953 L 6.7515 42.386594 L 8.513219 43.058469 L 10.204625 43.960812 L 11.810094 45.078 L 13.306187 46.398312 Z M 14.681187 47.906125 " transform="matrix(1, 0, 0, -1, 218.436, 217.578)"/>
<path fill-rule="nonzero" fill="rgb(100%, 25%, 25%)" fill-opacity="0.25" stroke-width="0.3985" stroke-linecap="butt" stroke-linejoin="miter" stroke="rgb(75%, 0%, 0%)" stroke-opacity="1" stroke-miterlimit="10" d="M -9.865688 13.120969 L -8.631313 15.35925 L -7.549281 17.745969 L -6.635219 20.245969 L -5.893031 22.828 L -5.334438 25.468625 L -4.96725 28.128781 L -4.795375 30.781125 L -4.822719 33.402219 L -5.041469 35.964719 L -5.455531 38.433469 L -6.061 40.788937 L -6.846156 43.003781 L -7.807094 45.062375 L -8.928188 46.937375 L -10.197719 48.617062 L -11.603969 50.078 L -13.131313 51.312375 L -14.760219 52.304562 L -16.471156 53.04675 L -18.244594 53.531125 L -20.064906 53.749875 L -21.908656 53.706906 L -23.756313 53.398312 L -25.584438 52.828 L -27.3735 51.999875 L -29.103969 50.917844 L -30.752406 49.601437 L -32.307094 48.054562 L -33.744594 46.29675 L -35.049281 44.343625 L -36.209438 42.210812 L -37.213344 39.92175 L -38.041469 37.503781 L -38.689906 34.976437 L -39.15475 32.367062 L -39.424281 29.703 L -39.4985 27.019406 L -39.3735 24.339719 L -39.057094 21.695187 L -38.545375 19.120969 L -37.850063 16.648312 L -36.978969 14.304562 L -35.936 12.124875 L -34.736781 10.132687 L -33.396938 8.35925 L -31.928188 6.824094 L -30.350063 5.558469 L -28.678188 4.566281 L -26.932094 3.874875 L -25.131313 3.488156 L -23.295375 3.410031 L -21.447719 3.644406 L -19.607875 4.187375 L -17.799281 5.027219 L -16.037563 6.152219 L -14.34225 7.542844 L -12.740688 9.187375 L -11.240688 11.054562 Z M -9.865688 13.120969 " transform="matrix(1, 0, 0, -1, 218.436, 217.578)"/>
<path fill-rule="nonzero" fill="rgb(100%, 25%, 25%)" fill-opacity="0.25" stroke-width="0.3985" stroke-linecap="butt" stroke-linejoin="miter" stroke="rgb(75%, 0%, 0%)" stroke-opacity="1" stroke-miterlimit="10" d="M -34.416469 -37.382938 L -33.182094 -33.824344 L -32.100063 -30.172 L -31.182094 -26.464969 L -30.439906 -22.742313 L -29.885219 -19.039188 L -29.518031 -15.398563 L -29.346156 -11.843875 L -29.369594 -8.410281 L -29.59225 -5.125125 L -30.006313 -2.01575 L -30.611781 0.894406 L -31.396938 3.585812 L -32.353969 6.027219 L -33.475063 8.210812 L -34.7485 10.113156 L -36.15475 11.722531 L -37.678188 13.027219 L -39.307094 14.0155 L -41.018031 14.675656 L -42.795375 15.007687 L -44.615688 15.003781 L -46.459438 14.667844 L -48.307094 13.995969 L -50.131313 12.992062 L -51.920375 11.667844 L -53.650844 10.023312 L -55.303188 8.078 L -56.853969 5.839719 L -58.295375 3.328 L -59.600063 0.558469 L -60.760219 -2.449344 L -61.760219 -5.668094 L -62.59225 -9.070438 L -63.240688 -12.632938 L -63.701625 -16.324344 L -63.971156 -20.1095 L -64.045375 -23.945438 L -63.924281 -27.800906 L -63.607875 -31.629031 L -63.096156 -35.379031 L -62.400844 -39.004031 L -61.525844 -42.449344 L -60.482875 -45.660281 L -59.287563 -48.574344 L -57.947719 -51.136844 L -56.478969 -53.285281 L -54.896938 -54.968875 L -53.225063 -56.148563 L -51.478969 -56.793094 L -49.678188 -56.882938 L -47.846156 -56.425906 L -45.9985 -55.441531 L -44.158656 -53.957156 L -42.346156 -52.023563 L -40.584438 -49.687625 L -38.893031 -47.000125 L -37.287563 -44.019656 L -35.791469 -40.797 Z M -34.416469 -37.382938 " transform="matrix(1, 0, 0, -1, 218.436, 217.578)"/>
<path fill-rule="nonzero" fill="rgb(100%, 25%, 25%)" fill-opacity="0.25" stroke-width="0.3985" stroke-linecap="butt" stroke-linejoin="miter" stroke="rgb(75%, 0%, 0%)" stroke-opacity="1" stroke-miterlimit="10" d="M 97.314 71.488156 L 98.548375 72.343625 L 99.630406 73.394406 L 100.548375 74.624875 L 101.290562 76.019406 L 101.84525 77.570187 L 102.212437 79.245969 L 102.384312 81.035031 L 102.360875 82.910031 L 102.138219 84.855344 L 101.724156 86.839719 L 101.122594 88.847531 L 100.333531 90.847531 L 99.3765 92.816281 L 98.255406 94.738156 L 96.981969 96.585812 L 95.575719 98.339719 L 94.052281 99.98425 L 92.423375 101.492062 L 90.712437 102.855344 L 88.935094 104.058469 L 87.114781 105.081906 L 85.271031 105.925656 L 83.427281 106.574094 L 81.599156 107.023312 L 79.810094 107.269406 L 78.079625 107.312375 L 76.427281 107.148312 L 74.8765 106.781125 L 73.439 106.218625 L 72.130406 105.464719 L 70.97025 104.527219 L 69.97025 103.417844 L 69.142125 102.148312 L 68.489781 100.73425 L 68.028844 99.187375 L 67.759312 97.527219 L 67.685094 95.773312 L 67.806187 93.937375 L 68.1265 92.042844 L 68.634312 90.10925 L 69.329625 88.160031 L 70.204625 86.214719 L 71.247594 84.292844 L 72.446812 82.417844 L 73.786656 80.613156 L 75.255406 78.8905 L 76.833531 77.277219 L 78.505406 75.788937 L 80.2515 74.441281 L 82.052281 73.257687 L 83.888219 72.245969 L 85.731969 71.42175 L 87.571812 70.79675 L 89.384312 70.374875 L 91.146031 70.163937 L 92.837437 70.17175 L 94.442906 70.398312 L 95.939 70.835812 Z M 97.314 71.488156 " transform="matrix(1, 0, 0, -1, 218.436, 217.578)"/>
<path fill-rule="nonzero" fill="rgb(100%, 25%, 25%)" fill-opacity="0.25" stroke-width="0.3985" stroke-linecap="butt" stroke-linejoin="miter" stroke="rgb(75%, 0%, 0%)" stroke-opacity="1" stroke-miterlimit="10" d="M 72.767125 54.128781 L 74.0015 55.328 L 75.083531 56.718625 L 75.997594 58.281125 L 76.739781 60.003781 L 77.298375 61.855344 L 77.665562 63.816281 L 77.837437 65.867062 L 77.810094 67.980344 L 77.591344 70.128781 L 77.177281 72.288937 L 76.571812 74.437375 L 75.786656 76.54675 L 74.825719 78.593625 L 73.704625 80.554562 L 72.435094 82.413937 L 71.028844 84.1405 L 69.5015 85.726437 L 67.872594 87.152219 L 66.161656 88.398312 L 64.388219 89.456906 L 62.567906 90.312375 L 60.724156 90.964719 L 58.8765 91.398312 L 57.048375 91.617062 L 55.259312 91.613156 L 53.528844 91.3905 L 51.880406 90.953 L 50.325719 90.304562 L 48.888219 89.449094 L 47.583531 88.402219 L 46.423375 87.167844 L 45.419469 85.7655 L 44.591344 84.206906 L 43.942906 82.507687 L 43.478062 80.687375 L 43.208531 78.7655 L 43.134312 76.761594 L 43.259312 74.699094 L 43.575719 72.593625 L 44.087437 70.476437 L 44.78275 68.367062 L 45.653844 66.288937 L 46.696812 64.261594 L 47.896031 62.316281 L 49.235875 60.468625 L 50.704625 58.742062 L 52.28275 57.156125 L 53.954625 55.73425 L 55.700719 54.488156 L 57.5015 53.437375 L 59.337437 52.597531 L 61.185094 51.976437 L 63.024937 51.581906 L 64.833531 51.42175 L 66.59525 51.499875 L 68.290562 51.812375 L 69.892125 52.363156 L 71.392125 53.136594 Z M 72.767125 54.128781 " transform="matrix(1, 0, 0, -1, 218.436, 217.578)"/>
<path fill-rule="nonzero" fill="rgb(100%, 25%, 25%)" fill-opacity="0.25" stroke-width="0.3985" stroke-linecap="butt" stroke-linejoin="miter" stroke="rgb(75%, 0%, 0%)" stroke-opacity="1" stroke-miterlimit="10" d="M 48.216344 29.863156 L 49.450719 31.468625 L 50.53275 33.269406 L 51.450719 35.238156 L 52.192906 37.347531 L 52.747594 39.578 L 53.114781 41.898312 L 53.286656 44.281125 L 53.263219 46.699094 L 53.040562 49.120969 L 52.6265 51.523312 L 52.024937 53.874875 L 51.235875 56.152219 L 50.278844 58.331906 L 49.15775 60.3905 L 47.884312 62.304562 L 46.478062 64.054562 L 44.954625 65.624875 L 43.325719 66.995969 L 41.614781 68.160031 L 39.837437 69.101437 L 38.017125 69.808469 L 36.173375 70.281125 L 34.329625 70.511594 L 32.5015 70.499875 L 30.712437 70.242062 L 28.981969 69.745969 L 27.329625 69.0155 L 25.778844 68.058469 L 24.337437 66.882687 L 23.03275 65.503781 L 21.872594 63.929562 L 20.872594 62.183469 L 20.040562 60.277219 L 19.392125 58.238156 L 18.931187 56.074094 L 18.661656 53.820187 L 18.587437 51.495969 L 18.708531 49.124875 L 19.028844 46.73425 L 19.536656 44.347531 L 20.231969 41.995969 L 21.106969 39.703 L 22.149937 37.495969 L 23.34525 35.398312 L 24.685094 33.441281 L 26.153844 31.644406 L 27.735875 30.035031 L 29.40775 28.628781 L 31.153844 27.445187 L 32.954625 26.503781 L 34.786656 25.816281 L 36.634312 25.3905 L 38.474156 25.23425 L 40.286656 25.351437 L 42.048375 25.742062 L 43.739781 26.394406 L 45.34525 27.312375 L 46.841344 28.472531 Z M 48.216344 29.863156 " transform="matrix(1, 0, 0, -1, 218.436, 217.578)"/>
<path fill-rule="nonzero" fill="rgb(100%, 25%, 25%)" fill-opacity="0.25" stroke-width="0.3985" stroke-linecap="butt" stroke-linejoin="miter" stroke="rgb(75%, 0%, 0%)" stroke-opacity="1" stroke-miterlimit="10" d="M 23.669469 -3.476688 L 24.903844 -1.26575 L 25.985875 1.144406 L 26.899937 3.714719 L 27.642125 6.413937 L 28.196812 9.206906 L 28.564 12.062375 L 28.735875 14.949094 L 28.712437 17.828 L 28.493687 20.67175 L 28.079625 23.449094 L 27.474156 26.132687 L 26.689 28.691281 L 25.728062 31.101437 L 24.606969 33.339719 L 23.337437 35.386594 L 21.931187 37.218625 L 20.403844 38.824094 L 18.774937 40.187375 L 17.064 41.292844 L 15.286656 42.132687 L 13.466344 42.699094 L 11.6265 42.98425 L 9.778844 42.992062 L 7.950719 42.718625 L 6.161656 42.167844 L 4.431187 41.343625 L 2.78275 40.257687 L 1.228062 38.913937 L -0.209438 37.324094 L -1.514125 35.511594 L -2.674281 33.48425 L -3.678188 31.2655 L -4.506313 28.878781 L -5.15475 26.339719 L -5.619594 23.679562 L -5.889125 20.92175 L -5.963344 18.097531 L -5.838344 15.23425 L -5.521938 12.363156 L -5.010219 9.519406 L -4.314906 6.730344 L -3.443813 4.031125 L -2.400844 1.456906 L -1.201625 -0.961063 L 0.138219 -3.187625 L 1.606969 -5.195438 L 3.185094 -6.957156 L 4.856969 -8.441531 L 6.603062 -9.629031 L 8.403844 -10.496219 L 10.239781 -11.035281 L 12.087437 -11.2345 L 13.927281 -11.086063 L 15.735875 -10.597781 L 17.497594 -9.777469 L 19.192906 -8.632938 L 20.794469 -7.187625 L 22.294469 -5.457156 Z M 23.669469 -3.476688 " transform="matrix(1, 0, 0, -1, 218.436, 217.578)"/>
<path fill-rule="nonzero" fill="rgb(100%, 25%, 25%)" fill-opacity="0.25" stroke-width="0.3985" stroke-linecap="butt" stroke-linejoin="miter" stroke="rgb(75%, 0%, 0%)" stroke-opacity="1" stroke-miterlimit="10" d="M 106.302281 24.351437 L 107.536656 25.456906 L 108.618687 26.828 L 109.53275 28.441281 L 110.274937 30.273312 L 110.833531 32.308469 L 111.200719 34.511594 L 111.372594 36.855344 L 111.34525 39.308469 L 111.1265 41.839719 L 110.712437 44.417844 L 110.106969 47.011594 L 109.321812 49.589719 L 108.360875 52.124875 L 107.239781 54.581906 L 105.97025 56.937375 L 104.564 59.167844 L 103.036656 61.245969 L 101.40775 63.156125 L 99.696812 64.874875 L 97.923375 66.386594 L 96.099156 67.679562 L 94.259312 68.738156 L 92.411656 69.558469 L 90.583531 70.128781 L 88.794469 70.449094 L 87.064 70.511594 L 85.415562 70.324094 L 83.860875 69.886594 L 82.423375 69.206906 L 81.118687 68.285031 L 79.958531 67.1405 L 78.954625 65.781125 L 78.1265 64.218625 L 77.478062 62.472531 L 77.013219 60.558469 L 76.743687 58.492062 L 76.669469 56.300656 L 76.794469 54.003781 L 77.110875 51.620969 L 77.622594 49.179562 L 78.317906 46.699094 L 79.189 44.214719 L 80.231969 41.745969 L 81.431187 39.320187 L 82.771031 36.964719 L 84.239781 34.706906 L 85.817906 32.574094 L 87.489781 30.589719 L 89.235875 28.781125 L 91.036656 27.17175 L 92.872594 25.781125 L 94.72025 24.628781 L 96.560094 23.738156 L 98.368687 23.117062 L 100.130406 22.781125 L 101.825719 22.738156 L 103.427281 22.98425 L 104.927281 23.527219 L 106.302281 24.355344 Z M 106.302281 24.351437 " transform="matrix(1, 0, 0, -1, 218.436, 217.578)"/>
<path fill-rule="nonzero" fill="rgb(100%, 25%, 25%)" fill-opacity="0.25" stroke-width="0.3985" stroke-linecap="butt" stroke-linejoin="miter" stroke="rgb(75%, 0%, 0%)" stroke-opacity="1" stroke-miterlimit="10" d="M 81.7515 1.781125 L 82.985875 3.382687 L 84.067906 5.245969 L 84.985875 7.351437 L 85.724156 9.663937 L 86.28275 12.156125 L 86.649937 14.788937 L 86.821812 17.531125 L 86.798375 20.347531 L 86.575719 23.199094 L 86.161656 26.058469 L 85.556187 28.8905 L 84.771031 31.660031 L 83.814 34.335812 L 82.692906 36.894406 L 81.419469 39.312375 L 80.013219 41.558469 L 78.489781 43.613156 L 76.860875 45.460812 L 75.146031 47.078 L 73.372594 48.456906 L 71.552281 49.581906 L 69.708531 50.445187 L 67.860875 51.038937 L 66.03275 51.355344 L 64.243687 51.402219 L 62.517125 51.17175 L 60.864781 50.67175 L 59.314 49.906125 L 57.872594 48.878781 L 56.567906 47.60925 L 55.40775 46.101437 L 54.40775 44.370969 L 53.575719 42.437375 L 52.927281 40.320187 L 52.466344 38.035031 L 52.196812 35.60925 L 52.122594 33.062375 L 52.243687 30.417844 L 52.560094 27.706906 L 53.071812 24.953 L 53.767125 22.187375 L 54.642125 19.437375 L 55.681187 16.73425 L 56.880406 14.105344 L 58.22025 11.585812 L 59.689 9.206906 L 61.267125 6.995969 L 62.942906 4.980344 L 64.689 3.191281 L 66.489781 1.656125 L 68.321812 0.394406 L 70.169469 -0.570438 L 72.009312 -1.218875 L 73.821812 -1.547 L 75.583531 -1.539188 L 77.274937 -1.195438 L 78.880406 -0.519656 L 80.3765 0.476437 L 81.7515 1.785031 Z M 81.7515 1.781125 " transform="matrix(1, 0, 0, -1, 218.436, 217.578)"/>
<path fill-rule="nonzero" fill="rgb(100%, 25%, 25%)" fill-opacity="0.25" stroke-width="0.3985" stroke-linecap="butt" stroke-linejoin="miter" stroke="rgb(75%, 0%, 0%)" stroke-opacity="1" stroke-miterlimit="10" d="M 57.204625 -32.070438 L 58.439 -29.672 L 59.521031 -26.988406 L 60.435094 -24.070438 L 61.177281 -20.961063 L 61.731969 -17.70325 L 62.099156 -14.343875 L 62.271031 -10.925906 L 62.247594 -7.492313 L 62.028844 -4.074344 L 61.610875 -0.718875 L 61.009312 2.550656 L 60.224156 5.691281 L 59.263219 8.679562 L 58.142125 11.488156 L 56.872594 14.093625 L 55.466344 16.468625 L 53.939 18.601437 L 52.310094 20.464719 L 50.599156 22.054562 L 48.821812 23.351437 L 47.0015 24.347531 L 45.161656 25.038937 L 43.314 25.413937 L 41.485875 25.476437 L 39.696812 25.226437 L 37.966344 24.667844 L 36.314 23.800656 L 34.763219 22.636594 L 33.325719 21.187375 L 32.017125 19.460812 L 30.856969 17.476437 L 29.856969 15.245969 L 29.028844 12.792844 L 28.3765 10.132687 L 27.915562 7.292844 L 27.646031 4.29675 L 27.571812 1.17175 L 27.696812 -2.054813 L 28.013219 -5.351688 L 28.521031 -8.683719 L 29.216344 -12.023563 L 30.091344 -15.336063 L 31.134312 -18.574344 L 32.333531 -21.711063 L 33.673375 -24.699344 L 35.142125 -27.496219 L 36.72025 -30.066531 L 38.392125 -32.371219 L 40.138219 -34.363406 L 41.939 -36.007938 L 43.774937 -37.269656 L 45.622594 -38.125125 L 47.462437 -38.550906 L 49.271031 -38.531375 L 51.03275 -38.070438 L 52.728062 -37.175906 L 54.329625 -35.855594 L 55.829625 -34.144656 L 57.200719 -32.070438 Z M 57.204625 -32.070438 " transform="matrix(1, 0, 0, -1, 218.436, 217.578)"/>
</svg>
